<svg xmlns="http://www.w3.org/2000/svg" width="179.996" height="53.332" viewBox="0 0 179.996 53.332"><defs><style>.a{fill:#a6a6a6;}.b{fill:#555453;}.c{fill:#fff;}</style></defs><g transform="translate(0)"><path class="a" d="M173.592,53.332H6.305A6.32,6.32,0,0,1,0,47.021V6.3A6.31,6.31,0,0,1,6.305,0H173.592A6.4,6.4,0,0,1,180,6.3v40.72A6.406,6.406,0,0,1,173.592,53.332Z" transform="translate(0)"/><path class="b" d="M178.408,46.726a5.107,5.107,0,0,1-5.107,5.106H6.009A5.113,5.113,0,0,1,.89,46.726V6A5.121,5.121,0,0,1,6.009.89H173.3A5.113,5.113,0,0,1,178.407,6h0V46.726Z" transform="translate(0.297 0.297)"/><g transform="translate(17.056 8.289)"><path class="c" d="M35.906,24.306a7.729,7.729,0,0,1,3.681-6.485,7.916,7.916,0,0,0-6.235-3.371c-2.623-.276-5.167,1.569-6.5,1.569-1.363,0-3.42-1.543-5.637-1.5a8.3,8.3,0,0,0-6.986,4.261c-3.021,5.23-.768,12.917,2.127,17.145,1.448,2.071,3.14,4.383,5.355,4.3,2.167-.089,2.976-1.381,5.591-1.381,2.591,0,3.351,1.381,5.609,1.329,2.325-.037,3.789-2.08,5.187-4.169a17.109,17.109,0,0,0,2.372-4.83A7.471,7.471,0,0,1,35.906,24.306ZM31.64,11.669a7.607,7.607,0,0,0,1.741-5.452A7.749,7.749,0,0,0,28.37,8.809a7.24,7.24,0,0,0-1.787,5.25A6.4,6.4,0,0,0,31.64,11.669Z" transform="translate(-12.792 -6.217)"/></g><g transform="translate(56.545 24.001)"><path class="c" d="M57.39,36H54.362L52.7,30.793H46.938L45.358,36H42.41l5.712-17.743H51.65Zm-5.187-7.4-1.5-4.633q-.238-.71-.895-3.343h-.053q-.4,1.676-.843,3.343l-1.473,4.633Zm19.876.844a7.27,7.27,0,0,1-1.764,5.158,5.158,5.158,0,0,1-3.923,1.685,3.922,3.922,0,0,1-3.633-1.816h-.053v6.74H59.863v-13.8q0-2.052-.105-4.212h2.5l.159,2.028h.053a5.058,5.058,0,0,1,8.094-.5A7.049,7.049,0,0,1,72.079,29.45Zm-2.9.1a5.267,5.267,0,0,0-.843-3.08,2.91,2.91,0,0,0-2.475-1.264,2.956,2.956,0,0,0-1.908.7,3.234,3.234,0,0,0-1.119,1.831,3.722,3.722,0,0,0-.132.867v2.133a3.418,3.418,0,0,0,.856,2.357,2.837,2.837,0,0,0,2.224.961,2.91,2.91,0,0,0,2.5-1.237A5.446,5.446,0,0,0,69.183,29.554Zm17.612-.1a7.265,7.265,0,0,1-1.765,5.158,5.153,5.153,0,0,1-3.921,1.685,3.919,3.919,0,0,1-3.632-1.816h-.053v6.74H74.58v-13.8q0-2.052-.105-4.212h2.5l.159,2.028h.053a5.059,5.059,0,0,1,8.1-.5A7.069,7.069,0,0,1,86.794,29.45Zm-2.9.1a5.268,5.268,0,0,0-.844-3.08,2.906,2.906,0,0,0-2.473-1.264,2.962,2.962,0,0,0-1.909.7,3.232,3.232,0,0,0-1.117,1.831,3.8,3.8,0,0,0-.132.867v2.133a3.429,3.429,0,0,0,.853,2.357,2.843,2.843,0,0,0,2.227.961A2.91,2.91,0,0,0,83,32.819,5.445,5.445,0,0,0,83.9,29.554Zm19.349,1.475a4.729,4.729,0,0,1-1.576,3.685,6.985,6.985,0,0,1-4.833,1.553,8.461,8.461,0,0,1-4.6-1.105l.659-2.369a7.792,7.792,0,0,0,4.109,1.133,3.885,3.885,0,0,0,2.5-.725,2.368,2.368,0,0,0,.893-1.939,2.471,2.471,0,0,0-.737-1.819,6.854,6.854,0,0,0-2.448-1.372q-4.66-1.738-4.659-5.088A4.5,4.5,0,0,1,94.193,19.4,6.439,6.439,0,0,1,98.537,18a8.612,8.612,0,0,1,4.027.843l-.711,2.317a6.986,6.986,0,0,0-3.4-.816,3.437,3.437,0,0,0-2.341.737,2.107,2.107,0,0,0-.711,1.607,2.169,2.169,0,0,0,.815,1.737A9.207,9.207,0,0,0,98.8,25.8a8.758,8.758,0,0,1,3.369,2.157A4.507,4.507,0,0,1,103.247,31.029Zm9.4-5.685h-3.133v6.212q0,2.37,1.659,2.369a5.056,5.056,0,0,0,1.263-.132l.079,2.159a6.44,6.44,0,0,1-2.211.315,3.411,3.411,0,0,1-2.633-1.027,5.043,5.043,0,0,1-.948-3.449V25.341h-1.867V23.207h1.867V20.865l2.792-.843v3.185h3.133ZM126.783,29.5a7.018,7.018,0,0,1-1.685,4.844,6.017,6.017,0,0,1-4.688,1.948,5.721,5.721,0,0,1-4.487-1.868,6.8,6.8,0,0,1-1.672-4.712,6.949,6.949,0,0,1,1.724-4.869,5.966,5.966,0,0,1,4.645-1.9,5.843,5.843,0,0,1,4.528,1.869A6.726,6.726,0,0,1,126.783,29.5Zm-2.949.092a5.755,5.755,0,0,0-.763-3.036,2.808,2.808,0,0,0-2.552-1.531,2.85,2.85,0,0,0-2.607,1.531,5.865,5.865,0,0,0-.763,3.089,5.747,5.747,0,0,0,.763,3.035,2.905,2.905,0,0,0,5.133-.027A5.776,5.776,0,0,0,123.833,29.594Zm12.189-3.884a4.93,4.93,0,0,0-.9-.079,2.686,2.686,0,0,0-2.317,1.133,4.26,4.26,0,0,0-.711,2.527V36h-2.841l.027-8.765q0-2.212-.107-4.028h2.476l.1,2.448h.079a4.375,4.375,0,0,1,1.421-2.027,3.438,3.438,0,0,1,2.055-.685,4.564,4.564,0,0,1,.711.052ZM148.735,29a6.741,6.741,0,0,1-.1,1.289H140.1a3.712,3.712,0,0,0,1.237,2.9,4.224,4.224,0,0,0,2.789.895,9.432,9.432,0,0,0,3.451-.605l.445,1.973a10.668,10.668,0,0,1-4.289.791,6.214,6.214,0,0,1-4.675-1.751,6.465,6.465,0,0,1-1.7-4.7,7.33,7.33,0,0,1,1.581-4.817,5.448,5.448,0,0,1,4.473-2.052,4.768,4.768,0,0,1,4.188,2.052A6.919,6.919,0,0,1,148.735,29Zm-2.711-.737a3.861,3.861,0,0,0-.552-2.185,2.483,2.483,0,0,0-2.265-1.185,2.7,2.7,0,0,0-2.263,1.159,4.242,4.242,0,0,0-.841,2.211h5.921Z" transform="translate(-42.41 -18.001)"/></g><g transform="translate(58.233 8.741)"><path class="c" d="M50.841,11.16A4.377,4.377,0,0,1,49.431,14.7a5.611,5.611,0,0,1-3.711,1.1,17.2,17.2,0,0,1-2.044-.1V7.124a15.083,15.083,0,0,1,2.407-.181,5.188,5.188,0,0,1,3.453,1A4.025,4.025,0,0,1,50.841,11.16Zm-1.473.039a3.187,3.187,0,0,0-.808-2.341A3.185,3.185,0,0,0,46.2,8.043a5.914,5.914,0,0,0-1.125.091v6.518a7.378,7.378,0,0,0,.944.039,3.305,3.305,0,0,0,2.476-.892A3.572,3.572,0,0,0,49.368,11.2Zm9.285,1.332a3.447,3.447,0,0,1-.828,2.38,2.955,2.955,0,0,1-2.3.957,2.809,2.809,0,0,1-2.205-.919,3.346,3.346,0,0,1-.82-2.315,3.414,3.414,0,0,1,.847-2.392,2.936,2.936,0,0,1,2.283-.931,2.874,2.874,0,0,1,2.225.917A3.318,3.318,0,0,1,58.653,12.53Zm-1.449.045a2.843,2.843,0,0,0-.375-1.492,1.38,1.38,0,0,0-1.253-.752,1.4,1.4,0,0,0-1.281.752A2.881,2.881,0,0,0,53.92,12.6a2.843,2.843,0,0,0,.375,1.492,1.41,1.41,0,0,0,1.268.752,1.394,1.394,0,0,0,1.253-.765A2.825,2.825,0,0,0,57.2,12.576ZM69.127,9.44l-1.967,6.285h-1.28L65.066,13a20.438,20.438,0,0,1-.505-2.031h-.025A14.768,14.768,0,0,1,64.03,13l-.865,2.729H61.87L60.021,9.44h1.436l.711,2.988q.258,1.06.427,2.017h.025q.156-.788.519-2l.892-3h1.139l.855,2.936q.31,1.074.5,2.069h.039a19.77,19.77,0,0,1,.427-2.069l.763-2.936h1.372Zm7.244,6.285h-1.4v-3.6q0-1.664-1.267-1.664a1.259,1.259,0,0,0-1.009.457A1.625,1.625,0,0,0,72.31,12v3.728h-1.4V11.236q0-.828-.051-1.8H72.09l.065.983h.039a2.019,2.019,0,0,1,.724-.759,2.362,2.362,0,0,1,1.267-.353,2.006,2.006,0,0,1,1.463.569,2.766,2.766,0,0,1,.724,2.083Zm3.853,0h-1.4V6.556h1.4Zm8.226-3.195a3.447,3.447,0,0,1-.828,2.38,2.957,2.957,0,0,1-2.3.957,2.805,2.805,0,0,1-2.205-.919,3.346,3.346,0,0,1-.82-2.315,3.414,3.414,0,0,1,.847-2.392,2.936,2.936,0,0,1,2.281-.931,2.877,2.877,0,0,1,2.227.917A3.318,3.318,0,0,1,88.451,12.53ZM87,12.576a2.843,2.843,0,0,0-.375-1.492,1.378,1.378,0,0,0-1.252-.752,1.4,1.4,0,0,0-1.281.752,2.881,2.881,0,0,0-.375,1.517,2.843,2.843,0,0,0,.375,1.492,1.41,1.41,0,0,0,1.268.752,1.392,1.392,0,0,0,1.252-.765A2.813,2.813,0,0,0,87,12.576Zm8.213,3.149H93.959l-.1-.724h-.039a2.152,2.152,0,0,1-1.836.867,1.9,1.9,0,0,1-1.435-.569,1.783,1.783,0,0,1-.492-1.28,1.953,1.953,0,0,1,.964-1.759,5,5,0,0,1,2.711-.595v-.117q0-1.242-1.305-1.241a2.923,2.923,0,0,0-1.639.465L90.5,9.855a4.031,4.031,0,0,1,2.156-.543q2.464,0,2.467,2.6v2.315A9.818,9.818,0,0,0,95.213,15.725Zm-1.451-2.16V12.6q-2.312-.04-2.312,1.267a.947.947,0,0,0,.268.737.974.974,0,0,0,.683.245,1.411,1.411,0,0,0,.855-.291A1.19,1.19,0,0,0,93.763,13.565Zm9.39,2.16h-1.24l-.065-1.009h-.039a2.089,2.089,0,0,1-2.019,1.152,2.366,2.366,0,0,1-1.888-.892,3.475,3.475,0,0,1-.749-2.315,3.644,3.644,0,0,1,.815-2.471,2.5,2.5,0,0,1,1.94-.88,1.884,1.884,0,0,1,1.771.853h.027V6.556h1.4v7.476Q103.1,14.95,103.153,15.725Zm-1.448-2.651V12.026a1.6,1.6,0,0,0-.544-1.287,1.374,1.374,0,0,0-.935-.343A1.434,1.434,0,0,0,99,11.019a2.663,2.663,0,0,0-.448,1.591,2.482,2.482,0,0,0,.429,1.513,1.438,1.438,0,0,0,1.221.62,1.346,1.346,0,0,0,1.1-.517,1.722,1.722,0,0,0,.4-1.151Zm13.4-.544a3.447,3.447,0,0,1-.828,2.38,2.953,2.953,0,0,1-2.3.957,2.813,2.813,0,0,1-2.205-.919,3.346,3.346,0,0,1-.82-2.315,3.414,3.414,0,0,1,.847-2.392,2.937,2.937,0,0,1,2.284-.931,2.872,2.872,0,0,1,2.224.917A3.318,3.318,0,0,1,115.1,12.53Zm-1.448.045a2.843,2.843,0,0,0-.375-1.492,1.382,1.382,0,0,0-1.255-.752,1.4,1.4,0,0,0-1.281.752,2.881,2.881,0,0,0-.375,1.517,2.843,2.843,0,0,0,.375,1.492,1.428,1.428,0,0,0,2.523-.013A2.837,2.837,0,0,0,113.656,12.576Zm8.961,3.149h-1.4v-3.6q0-1.664-1.268-1.664a1.256,1.256,0,0,0-1.008.457A1.616,1.616,0,0,0,118.557,12v3.728h-1.4V11.236q0-.828-.049-1.8h1.227l.065.983h.039a2.038,2.038,0,0,1,.724-.759,2.366,2.366,0,0,1,1.268-.353,2,2,0,0,1,1.461.569,2.761,2.761,0,0,1,.724,2.083Zm9.4-5.238h-1.539V13.54c0,.776.273,1.164.815,1.164a2.461,2.461,0,0,0,.623-.065l.036,1.06a3.14,3.14,0,0,1-1.085.156,1.67,1.67,0,0,1-1.292-.5,2.465,2.465,0,0,1-.467-1.695V10.487h-.919V9.44h.919V8.288l1.369-.413V9.439h1.539v1.048Zm7.4,5.238h-1.4V12.152q0-1.69-1.265-1.691a1.334,1.334,0,0,0-1.333.98,1.783,1.783,0,0,0-.065.5v3.78h-1.4V6.556h1.4v3.788h.027a2.112,2.112,0,0,1,1.888-1.033,1.947,1.947,0,0,1,1.437.569,2.863,2.863,0,0,1,.711,2.108Zm7.63-3.44a3.375,3.375,0,0,1-.052.633h-4.191a1.833,1.833,0,0,0,.607,1.423,2.082,2.082,0,0,0,1.372.44,4.629,4.629,0,0,0,1.695-.3l.219.971a5.262,5.262,0,0,1-2.109.388,3.046,3.046,0,0,1-2.295-.86,3.168,3.168,0,0,1-.833-2.308,3.6,3.6,0,0,1,.776-2.367,2.672,2.672,0,0,1,2.2-1.008,2.338,2.338,0,0,1,2.055,1.008A3.355,3.355,0,0,1,147.048,12.285Zm-1.333-.361a1.875,1.875,0,0,0-.271-1.073,1.22,1.22,0,0,0-1.112-.583,1.326,1.326,0,0,0-1.112.569,2.108,2.108,0,0,0-.415,1.087Z" transform="translate(-43.676 -6.556)"/></g></g></svg>