<svg xmlns="http://www.w3.org/2000/svg" width="38.509" height="39.303" viewBox="0 0 38.509 39.303"><defs><style>.a{fill:#fff;}</style></defs><g transform="translate(0)"><path class="a" d="M28.193,13.62A14.715,14.715,0,0,0,21.837,15a10.107,10.107,0,0,0,1.171-4.223,7.372,7.372,0,0,0-2.885-5.352A10.4,10.4,0,0,0,13.475,3h0C8.081,3,3.942,7.181,3.9,10.777a13.211,13.211,0,0,0,2.676,6.732,11.539,11.539,0,0,0,3.052,3.01v5.728h0v2.467h0L9.586,42.3h7.735V37.035A14.226,14.226,0,1,0,28.193,13.62ZM6.409,10.777c0-2.132,2.969-5.31,7.066-5.31h0a7.925,7.925,0,0,1,5.1,1.882,5.068,5.068,0,0,1,2.007,3.47,10.5,10.5,0,0,1-2.216,5.268,8.763,8.763,0,0,1-3.01,2.76l2.8-6.564L15.9,11.321,13.35,17.258l-2.3-5.937-2.3.878,2.425,6.355a9.709,9.709,0,0,1-2.592-2.509A9.993,9.993,0,0,1,6.409,10.777Zm5.686,11h2.76v4.474H12.1Zm0,18.063V28.756h2.76V39.878Zm16.1-.209a11.621,11.621,0,0,1-10.537-6.564l-.334-.669V23.07l.334-.669a10.554,10.554,0,0,1,1.923-2.76,11.886,11.886,0,0,1,20.362,8.2A11.8,11.8,0,0,1,28.193,39.627Z" transform="translate(-3.9 -3)"/><path class="a" d="M60.254,39.4H59v2.467h1.254a7.191,7.191,0,0,1,7.192,7.192v1.254h2.467V49.059A9.636,9.636,0,0,0,60.254,39.4Z" transform="translate(-35.962 -24.18)"/></g></svg>