<svg xmlns="http://www.w3.org/2000/svg" width="34.953" height="21.508" viewBox="0 0 34.953 21.508"><defs><style>.a{fill:#fff;stroke:#fff;stroke-width:0.5px;}</style></defs><g transform="translate(0.25 0.25)"><path class="a" d="M37.533,11.5H3.92a.416.416,0,0,0-.42.42V32.088a.416.416,0,0,0,.42.42H37.533a.416.416,0,0,0,.42-.42V11.92A.416.416,0,0,0,37.533,11.5Zm-.42,20.168H4.34V16.021l16.168,9.706a.435.435,0,0,0,.437,0l16.168-9.706Zm0-16.622L20.727,24.878,4.34,15.046V12.34H37.113Z" transform="translate(-3.5 -11.5)"/></g></svg>