<svg xmlns="http://www.w3.org/2000/svg" width="162.105" height="67.303" viewBox="0 0 162.105 67.303"><defs><style>.a,.b,.d{fill:#1a1818;}.b,.c{fill-rule:evenodd;}.c{fill:#e50019;}.d{font-size:14px;font-family:Bariol-Regular, Bariol;letter-spacing:0.17em;}</style></defs><g transform="translate(-120.258 -145.135)"><g transform="translate(120.29 196.592)"><rect class="a" width="162.073" height="0.243"/></g><g transform="translate(120.258 145.135)"><g transform="translate(37.829 5.107)"><path class="a" d="M195.338,172.857V190.3h2.973V172.57c0-5.4,5.91-7.865,10.313-7.865v-2.875C203.158,161.831,195.338,164.281,195.338,172.857Z" transform="translate(-162.525 -151.269)"/><path class="a" d="M171.465,161.644a11.338,11.338,0,0,0-11.09,11.378v17.266h2.981V172.736a8.112,8.112,0,0,1,16.224,0v17.551h2.979V172.736A11.1,11.1,0,0,0,171.465,161.644Z" transform="translate(-160.375 -151.257)"/><rect class="a" width="2.987" height="28.472" transform="translate(53.147 10.558)"/><path class="a" d="M272.131,164.646V150.577h-2.973v39.03h2.987V172.056a8.109,8.109,0,0,1,16.217,0v17.551h2.977V172.056A11.02,11.02,0,0,0,272.131,164.646Z" transform="translate(-167.063 -150.577)"/></g><path class="b" d="M123.076,174.8a11.592,11.592,0,0,1,22.99,0Zm25.885,2.975.123-1.492c.628-7.98-6.5-14.509-14.507-14.509a14.513,14.513,0,1,0,13.714,19.233,2.785,2.785,0,0,0,.108-.328c-.008.015-3.094-.016-3.1.007a11.594,11.594,0,0,1-22.222-2.91Z" transform="translate(-120.068 -146.158)"/><path class="b" d="M258.183,171.271a14.742,14.742,0,0,0-13.863-9.5A14.513,14.513,0,1,0,257.932,181.3h-3.164a11.585,11.585,0,1,1,0-10.032Z" transform="translate(-126.815 -146.158)"/><path class="c" d="M212.552,150.424a4.93,4.93,0,0,1-.3-3.409,3.338,3.338,0,0,1,.547-.891,2.623,2.623,0,0,1,1.276-.842c4.167-1.123,5.191,4.622,7.333,2.251a4.072,4.072,0,0,1,2.845-1.664c1.345,0,1.969.88,1.87,2.337-.194,2.739-5.6,9.485-7.471,9.485-2.524,0-5.321-5.2-6.1-7.268" transform="translate(-125.724 -145.135)"/></g><text class="d" transform="translate(201.001 209.438)"><tspan x="-77.91" y="0">love begins with you</tspan></text></g></svg>