<svg xmlns="http://www.w3.org/2000/svg" xmlns:xlink="http://www.w3.org/1999/xlink" width="87.342" height="78.547" viewBox="0 0 87.342 78.547"><defs><style>.a{stroke:rgba(0,0,0,0);opacity:0.53;fill:url(#a);}.b,.c{fill:#2b2a29;}.b{stroke:#2b2a29;stroke-width:0.5px;}.d{fill:#e31e24;fill-rule:evenodd;}</style><linearGradient id="a" x1="0.07" y1="0.878" x2="1.822" y2="0.536" gradientUnits="objectBoundingBox"><stop offset="0" stop-color="#ffdcd9"/><stop offset="1" stop-color="#ff686e"/></linearGradient></defs><g transform="translate(-1370.594 -384.715)"><path class="a" d="M109.79,517.4c-11.041-4.523-34.993-35.808-24.054-59.927s21.01-16.708,32.051-12.187,15.071,15.586,22.442,15.647,10.241.718,19.236,2.466,13.328,12.419,5.73,22.066S153.672,498.22,139.82,506.2s-22.313,14.353-30.03,11.191" transform="translate(1288.277 -55.431)"/><g transform="translate(1381.328 391.792)"><g transform="translate(0)"><g transform="translate(0)"><path class="b" d="M56.892,30.049V21.673A5.406,5.406,0,0,0,51.905,16.3L44.126,2.711A5.361,5.361,0,0,0,36.772.73L10.1,16.255H5.421A5.423,5.423,0,0,0,0,21.673V54.181A5.423,5.423,0,0,0,5.421,59.6H51.474a5.423,5.423,0,0,0,5.418-5.418V45.8A4.057,4.057,0,0,0,59.6,41.99V33.863A4.057,4.057,0,0,0,56.892,30.049ZM38.135,3.071A2.619,2.619,0,0,1,40.147,2.8a2.656,2.656,0,0,1,1.627,1.258L49.062,16.3l-33.573-.044Zm16.048,51.11a2.713,2.713,0,0,1-2.709,2.709H5.421a2.713,2.713,0,0,1-2.709-2.709V21.673a2.713,2.713,0,0,1,2.709-2.709H51.474a2.713,2.713,0,0,1,2.709,2.709V29.8H46.056a8.127,8.127,0,0,0,0,16.254h8.127v8.127Zm2.709-12.19a1.355,1.355,0,0,1-1.355,1.355H46.056a5.418,5.418,0,1,1,0-10.836h9.481a1.355,1.355,0,0,1,1.355,1.355Z" transform="translate(-0.003 0)"/></g></g><path class="c" d="M642.647,130.5l-21.971,11.632h6.462L644.37,133.3Z" transform="translate(-599.679 -124.676)"/><path class="d" d="M216.452,393.418a5.105,5.105,0,0,1-.311-3.539,3.579,3.579,0,0,1,.566-.926,2.714,2.714,0,0,1,1.322-.871c4.324-1.163,5.384,4.793,7.607,2.333a4.236,4.236,0,0,1,2.954-1.724c1.395,0,2.04.914,1.943,2.424-.2,2.844-5.8,9.837-7.754,9.837-2.619.006-5.524-5.384-6.328-7.534" transform="translate(-197.7 -356.635)"/></g></g></svg>