<svg xmlns="http://www.w3.org/2000/svg" xmlns:xlink="http://www.w3.org/1999/xlink" width="56.525" height="50.867" viewBox="0 0 56.525 50.867"><defs><style>.a{stroke:rgba(0,0,0,0);opacity:0.5;fill:url(#a);}.b{fill:#2b2a29;}.c{fill:#e31e24;}</style><linearGradient id="a" x1="0.07" y1="0.878" x2="1.822" y2="0.536" gradientUnits="objectBoundingBox"><stop offset="0" stop-color="#e6e6e6"/><stop offset="1" stop-color="#9ea4ac"/></linearGradient></defs><g transform="translate(0.58 0.443)"><path class="a" d="M100.206,489.969c-7.1-2.908-22.5-23.027-15.469-38.537s13.511-10.745,20.611-7.837,9.691,10.023,14.432,10.062,6.586.462,12.37,1.586,8.571,7.986,3.685,14.19-7.41,8.205-16.317,13.339-14.349,9.23-19.312,7.2" transform="translate(-82.94 -440.558)"/><g transform="translate(8.361 6.355)"><path class="b" d="M53.174,14.686a1.111,1.111,0,0,0-2.1.72A15.337,15.337,0,1,1,34.779,5.143l-1.5.839a1.111,1.111,0,1,0,1.084,1.941L39.589,5a1.111,1.111,0,0,0,0-1.941L34.362.142a1.111,1.111,0,0,0-1.084,1.941l1.478.826A17.561,17.561,0,0,0,24.144,32.793a17.56,17.56,0,0,0,29.03-18.107Z" transform="translate(-19.001 0)"/></g><path class="c" d="M.937-13.851H12.073v.023a17.269,17.269,0,0,1-1.111,1.621H7.987A3.886,3.886,0,0,1,8.82-10.46h3.172q.058.012.058.046-1.065,1.6-1.088,1.6H8.9a4.726,4.726,0,0,1-.787,1.979A4.836,4.836,0,0,1,6.3-5.32a7.186,7.186,0,0,1-3.1.776v.023a4.29,4.29,0,0,0,.729.961l5.5,6.633v.313q0,.046-.058.046H6.945Q.416-4.174.416-4.209v-1.54L.44-5.806a9.9,9.9,0,0,0,1.354.081q3.658,0,4.549-2.373a1.915,1.915,0,0,0,.139-.718H-.139a.041.041,0,0,1-.046-.046q1.1-1.6,1.123-1.6H6.192v-.023a3.081,3.081,0,0,0-1.748-1.424,5.456,5.456,0,0,0-1.667-.3H-.162v-.058Q.9-13.851.937-13.851Z" transform="translate(21.165 33.122)"/></g></svg>