<svg xmlns="http://www.w3.org/2000/svg" xmlns:xlink="http://www.w3.org/1999/xlink" width="206.662" height="79.998" viewBox="0 0 206.662 79.998"><defs><style>.a{fill:none;}.b{fill:#a7a6a6;}.b,.c,.d,.e,.f,.g,.h,.i{fill-rule:evenodd;}.c,.d{fill:#fff;}.c{stroke:#fff;stroke-width:0.2px;}.e{fill:url(#a);}.f{fill:url(#b);}.g{fill:url(#c);}.h{fill:#1f783f;}.i{fill:url(#d);}</style><linearGradient id="a" x1="-10.798" y1="11.983" x2="-10.873" y2="11.963" gradientUnits="objectBoundingBox"><stop offset="0" stop-color="#00bff1"/><stop offset="1" stop-color="#67cce5"/></linearGradient><linearGradient id="b" x1="-14.778" y1="32.036" x2="-15.013" y2="32.036" gradientUnits="objectBoundingBox"><stop offset="0" stop-color="#fdeb2b"/><stop offset="1" stop-color="#f99c21"/></linearGradient><linearGradient id="c" x1="-8.565" y1="21.624" x2="-8.646" y2="21.485" gradientUnits="objectBoundingBox"><stop offset="0" stop-color="#ef4547"/><stop offset="1" stop-color="#c6186d"/></linearGradient><linearGradient id="d" x1="-8.628" y1="22.463" x2="-8.591" y2="22.402" gradientUnits="objectBoundingBox"><stop offset="0" stop-color="#38a378"/><stop offset="0.126" stop-color="#43a877"/><stop offset="0.667" stop-color="#62b874"/><stop offset="1" stop-color="#6cc073"/></linearGradient></defs><g transform="translate(0)"><path class="a" d="M-10-10H196.662V70H-10Z" transform="translate(10 10)"/><path class="b" d="M173.329,1.067a5.634,5.634,0,0,1,5.6,5.6v40a5.634,5.634,0,0,1-5.6,5.6H6.667a5.634,5.634,0,0,1-5.6-5.6v-40a5.634,5.634,0,0,1,5.6-5.6Zm0-1.067H6.667A6.6,6.6,0,0,0,0,6.666v40a6.6,6.6,0,0,0,6.667,6.666H173.329A6.6,6.6,0,0,0,180,46.665v-40A6.686,6.686,0,0,0,173.329,0Z" transform="translate(13.333 13.333)"/><g transform="translate(68.532 22.533)"><path class="c" d="M49.4,11.3a3.632,3.632,0,0,1-.933,2.667A4.133,4.133,0,0,1,41.4,11.033,4.1,4.1,0,0,1,45.533,6.9a3.55,3.55,0,0,1,1.6.4,2.9,2.9,0,0,1,1.2.933l-.667.667a2.486,2.486,0,0,0-2.133-.933A2.653,2.653,0,0,0,43.4,8.9a2.747,2.747,0,0,0-.933,2.267,2.747,2.747,0,0,0,.933,2.267,3.433,3.433,0,0,0,2.133.933,2.924,2.924,0,0,0,2.267-.933,2.208,2.208,0,0,0,.667-1.6H45.533V10.9H49.4Zm6.133-3.333h-3.6V10.5h3.333v.933H51.933v2.533h3.6v1.067H50.866v-8h4.667Zm4.4,7.066H58.866V7.967H56.6V7.033h5.6v.933H59.933Zm6.133,0v-8h1.067v8Zm5.6,0H70.6V7.967H68.333V7.033H73.8v.933H71.533v7.066Zm12.666-1.067a4.133,4.133,0,0,1-7.066-2.933,4.133,4.133,0,1,1,8.266,0A3.92,3.92,0,0,1,84.332,13.966ZM79.266,13.3a3.146,3.146,0,0,0,2.133.933,2.653,2.653,0,0,0,2.133-.933,3.217,3.217,0,0,0,.933-2.267,2.747,2.747,0,0,0-.933-2.267A3.146,3.146,0,0,0,81.4,7.833a2.653,2.653,0,0,0-2.133.933,3.217,3.217,0,0,0-.933,2.267A2.747,2.747,0,0,0,79.266,13.3ZM87,15.033v-8h1.2L92.065,13.3V7.033h1.067v8H92.065L87.932,8.5v6.533Z" transform="translate(-41.4 -6.9)"/></g><path class="d" d="M77.1,23.366A5.609,5.609,0,0,0,71.366,29.1,5.691,5.691,0,0,0,77.1,34.833,5.609,5.609,0,0,0,82.832,29.1,5.531,5.531,0,0,0,77.1,23.366Zm0,9.066a3.31,3.31,0,0,1-3.2-3.467A3.31,3.31,0,0,1,77.1,25.5a3.23,3.23,0,0,1,3.2,3.467A3.31,3.31,0,0,1,77.1,32.433ZM64.7,23.366A5.609,5.609,0,0,0,58.966,29.1,5.691,5.691,0,0,0,64.7,34.833,5.609,5.609,0,0,0,70.433,29.1,5.531,5.531,0,0,0,64.7,23.366Zm0,9.066a3.31,3.31,0,0,1-3.2-3.467A3.31,3.31,0,0,1,64.7,25.5a3.23,3.23,0,0,1,3.2,3.467A3.31,3.31,0,0,1,64.7,32.433ZM49.9,25.1v2.4h5.733A5.042,5.042,0,0,1,54.3,30.566,5.9,5.9,0,0,1,49.9,32.3a6.208,6.208,0,0,1-6.267-6.4A6.289,6.289,0,0,1,49.9,19.5a6.611,6.611,0,0,1,4.4,1.733L56.033,19.5a8.544,8.544,0,0,0-6-2.4A8.994,8.994,0,0,0,41.1,25.9a8.994,8.994,0,0,0,8.933,8.8,7.673,7.673,0,0,0,6.133-2.533,8.026,8.026,0,0,0,2.133-5.6,5,5,0,0,0-.133-1.467Zm60.532,1.867a5.18,5.18,0,0,0-4.8-3.6c-2.933,0-5.333,2.267-5.333,5.733a5.58,5.58,0,0,0,5.6,5.733,5.469,5.469,0,0,0,4.667-2.533L108.7,30.966a3.25,3.25,0,0,1-2.8,1.6,2.893,2.893,0,0,1-2.8-1.733l7.6-3.2ZM102.7,28.833a3.239,3.239,0,0,1,2.933-3.333,2.358,2.358,0,0,1,2.133,1.2ZM96.432,34.3h2.533V17.633H96.432Zm-4-9.733a4.39,4.39,0,0,0-3.067-1.333A5.729,5.729,0,0,0,83.9,28.966a5.521,5.521,0,0,0,5.467,5.6A3.828,3.828,0,0,0,92.3,33.233h.133v.8c0,2.133-1.2,3.333-3.067,3.333a2.962,2.962,0,0,1-2.8-2l-2.133.933A5.5,5.5,0,0,0,89.5,39.633c2.933,0,5.333-1.733,5.333-5.866V23.633h-2.4ZM89.5,32.433a3.31,3.31,0,0,1-3.2-3.467A3.31,3.31,0,0,1,89.5,25.5a3.208,3.208,0,0,1,3.067,3.467A3.208,3.208,0,0,1,89.5,32.433Zm32.533-14.8h-6V34.3h2.533V28.033h3.467a5.206,5.206,0,1,0,0-10.4Zm.133,8h-3.6V19.9h3.6a2.929,2.929,0,0,1,2.933,2.8A3.051,3.051,0,0,1,122.165,25.633Zm15.333-2.4a4.482,4.482,0,0,0-4.4,2.533l2.267.933a2.355,2.355,0,0,1,2.267-1.2,2.506,2.506,0,0,1,2.667,2.133v.133a5.289,5.289,0,0,0-2.533-.667c-2.4,0-4.8,1.333-4.8,3.733a3.906,3.906,0,0,0,4.133,3.733,3.752,3.752,0,0,0,3.2-1.6h.133V34.3h2.4V27.9A5.046,5.046,0,0,0,137.5,23.233Zm-.267,9.2c-.8,0-2-.4-2-1.467,0-1.333,1.467-1.733,2.667-1.733a5.156,5.156,0,0,1,2.267.533A3.105,3.105,0,0,1,137.231,32.433Zm14-8.8-2.8,7.2H148.3l-2.933-7.2H142.7l4.4,10.133-2.533,5.6H147.1l6.8-15.733ZM128.831,34.3h2.533V17.633h-2.533Z" transform="translate(27.032 19.032)"/><path class="e" d="M10.567,7.4A2.638,2.638,0,0,0,9.9,9.267V38.732a2.638,2.638,0,0,0,.667,1.867l.133.133L27.233,24.2v-.267Z" transform="translate(16.633 15.799)"/><path class="f" d="M28.367,26.9,22.9,21.433v-.267L28.367,15.7l.133.133,6.533,3.733c1.867,1.067,1.867,2.8,0,3.867Z" transform="translate(20.966 18.566)"/><path class="g" d="M32.666,25.5l-5.6-5.6L10.4,36.433c.667.667,1.6.667,2.8.133L32.666,25.5" transform="translate(16.799 19.965)"/><path class="h" d="M22.9,21.333,28.5,15.6Z" transform="translate(20.966 18.532)"/><path class="i" d="M32.666,18.476,13.2,7.41a2.161,2.161,0,0,0-2.8.133L27.066,24.209Z" transform="translate(16.799 15.656)"/></g></svg>