<svg xmlns="http://www.w3.org/2000/svg" width="52" height="52" viewBox="0 0 52 52"><defs><style>.a,.d{fill:none;}.a{stroke:#fff;}.b{fill:#fff;}.c{stroke:none;}</style></defs><g transform="translate(-301 -8980)"><g class="a" transform="translate(301 8980)"><circle class="c" cx="26" cy="26" r="26"/><circle class="d" cx="26" cy="26" r="25.5"/></g><g transform="translate(316 8995)"><g transform="translate(0 0)"><path class="b" d="M781.684,167.27a1.293,1.293,0,1,0,1.293,1.293A1.293,1.293,0,0,0,781.684,167.27Z" transform="translate(-764.812 -163.33)"/><path class="b" d="M769.963,169.93a5.433,5.433,0,1,0,5.434,5.433A5.439,5.439,0,0,0,769.963,169.93Zm0,8.913a3.48,3.48,0,1,1,3.481-3.48A3.483,3.483,0,0,1,769.963,178.843Z" transform="translate(-758.841 -164.332)"/><path class="b" d="M770.843,183.015h-8.808a6.635,6.635,0,0,1-6.627-6.627v-8.808a6.635,6.635,0,0,1,6.627-6.627h8.808a6.635,6.635,0,0,1,6.627,6.627v8.808A6.635,6.635,0,0,1,770.843,183.015Zm-8.808-19.987a4.556,4.556,0,0,0-4.551,4.551v8.808a4.556,4.556,0,0,0,4.551,4.551h8.808a4.556,4.556,0,0,0,4.551-4.551v-8.808a4.556,4.556,0,0,0-4.551-4.551Z" transform="translate(-755.407 -160.952)"/></g></g></g></svg>