<svg xmlns="http://www.w3.org/2000/svg" xmlns:xlink="http://www.w3.org/1999/xlink" width="56.525" height="50.867" viewBox="0 0 56.525 50.867"><defs><style>.a{stroke:rgba(0,0,0,0);opacity:0.5;fill:url(#a);}.b{fill:#2b2a29;}.c{fill:#e31e24;}</style><linearGradient id="a" x1="0.07" y1="0.878" x2="1.822" y2="0.536" gradientUnits="objectBoundingBox"><stop offset="0" stop-color="#e6e6e6"/><stop offset="1" stop-color="#9ea4ac"/></linearGradient></defs><g transform="translate(0.58 0.443)"><path class="a" d="M100.206,489.969c-7.1-2.908-22.5-23.027-15.469-38.537s13.511-10.745,20.611-7.837,9.691,10.023,14.432,10.062,6.586.462,12.37,1.586,8.571,7.986,3.685,14.19-7.41,8.205-16.317,13.339-14.349,9.23-19.312,7.2" transform="translate(-82.94 -440.558)"/><g transform="translate(11.453 2.7)"><path class="b" d="M97.472,34.131,95.37,11a1.237,1.237,0,0,0-1.232-1.124h-3.7V7.409a7.409,7.409,0,0,0-14.819,0v2.47h-3.7A1.233,1.233,0,0,0,70.679,11l-2.1,23.127a4.939,4.939,0,0,0,4.92,5.387H92.552a4.939,4.939,0,0,0,4.92-5.387ZM78.084,7.409a4.94,4.94,0,1,1,9.879,0v2.47H78.084ZM94.375,36.245a2.452,2.452,0,0,1-1.825.8H73.5a2.469,2.469,0,0,1-2.457-2.695l2-22h2.576v3.7a1.235,1.235,0,1,0,2.47,0v-3.7h9.879v3.7a1.235,1.235,0,1,0,2.47,0v-3.7h2.576l2,22.006A2.439,2.439,0,0,1,94.375,36.245Z" transform="translate(-68.557 0)"/></g><g transform="translate(21.529 20.96)"><path class="c" d="M119.438,5.313a.248.248,0,0,0-.232-.155h-3.043L119.18.387a.234.234,0,0,0,0-.258A.271.271,0,0,0,118.948,0h-4.127a.271.271,0,0,0-.232.129L110.72,7.866a.234.234,0,0,0,0,.258.308.308,0,0,0,.232.129h2.656l-2.889,6.886a.257.257,0,0,0,.1.309.193.193,0,0,0,.129.026.293.293,0,0,0,.206-.077l8.253-9.8A.277.277,0,0,0,119.438,5.313Zm-7.582,8.434C114.254,8,115.569,5.674,111.855,13.747Z" transform="translate(-110.682)"/></g></g></svg>