<svg xmlns="http://www.w3.org/2000/svg" width="39.014" height="39.304" viewBox="0 0 39.014 39.304"><defs><style>.a{fill:#fff;}</style></defs><g transform="translate(0 0)"><path class="a" d="M25.282,1.682a19.348,19.348,0,0,0,9.2-2.328l10.436,2.8L42.153-8.174a19.419,19.419,0,0,0,2.509-9.559,19.42,19.42,0,0,0-19.38-19.415A19.419,19.419,0,0,0,5.9-17.733,19.42,19.42,0,0,0,25.282,1.682Zm0-36.2A16.792,16.792,0,0,1,42.04-17.733a16.781,16.781,0,0,1-2.416,8.688l-.29.479,1.874,7.007-7.088-1.9-.47.272A16.727,16.727,0,0,1,25.282-.945,16.792,16.792,0,0,1,8.524-17.733,16.792,16.792,0,0,1,25.282-34.521Z" transform="translate(-5.902 37.148)"/><ellipse class="a" cx="2.232" cy="2.232" rx="2.232" ry="2.232" transform="translate(25.252 17.185)"/><ellipse class="a" cx="2.232" cy="2.232" rx="2.232" ry="2.232" transform="translate(17.149 17.185)"/><ellipse class="a" cx="2.232" cy="2.232" rx="2.232" ry="2.232" transform="translate(9.045 17.185)"/></g></svg>