<svg xmlns="http://www.w3.org/2000/svg" width="15" height="15" viewBox="0 0 15 20"><defs><style>.a{fill:#fff;}.b{fill:none;stroke:#eb6165;}.c,.d{stroke:none;}.d{fill:#eb6165;}</style></defs><g transform="translate(-21 -374)"><g class="a" transform="translate(21 374)"><path class="c" d="M 14.5 17.5 L 0.5 17.5 L 0.5 0.5 L 9.449679374694824 0.5 L 12.07673740386963 2.600624322891235 L 14.5 4.676478385925293 L 14.5 17.5 Z"/><path class="d" d="M 1 1 L 1 17 L 14 17 L 14 4.906545639038086 L 11.75777912139893 2.985777854919434 L 9.274348258972168 1 L 1 1 M 0 0 L 9.625 0 L 12.39550971984863 2.215330123901367 L 15 4.446430206298828 L 15 18 L 0 18 L 0 0 Z"/></g><line class="b" x2="7" transform="translate(24 382)"/><line class="b" x2="5" transform="translate(24 379)"/><line class="b" x2="5" transform="translate(24 386)"/><line class="b" x2="7" transform="translate(24 384)"/><line class="b" x2="3" transform="translate(31 389)"/></g></svg>