<svg xmlns="http://www.w3.org/2000/svg" width="30.413" height="27.944" viewBox="0 0 30.413 27.944"><defs><style>.a{fill:#fff;}</style></defs><path class="a" d="M55.323,47.431a2.87,2.87,0,0,0-1.348-.97l-.378-.183c-.037,0-4.106-2.007-4.881-2.288a2.021,2.021,0,0,0-2.648.689c-.4.61-1.6,2-2.154,2.624-.049.055-.085.079-.085.085a1,1,0,0,1-.354-.128c-.122-.061-.3-.134-.506-.226a17.326,17.326,0,0,1-4.948-3.051,19.87,19.87,0,0,1-3.728-4.576l-.085-.1a2.22,2.22,0,0,1,.2-.214c.244-.238.506-.555.757-.854l.354-.415a5.043,5.043,0,0,0,.732-1.153l.092-.189a2.141,2.141,0,0,0-.055-2.038c-.11-.214-.836-1.952-1.367-3.222l-.775-1.861c-.653-1.544-1.495-1.739-2.276-1.745h-1.5a3.5,3.5,0,0,0-2.544,1.159l-.128.134a8.543,8.543,0,0,0-2.556,6.26c0,3.331,2.135,6.5,3.051,7.712l.1.153c2.038,2.868,6.339,8.06,12.282,10.586a41,41,0,0,0,4.094,1.489,10.015,10.015,0,0,0,3,.451,11.712,11.712,0,0,0,1.83-.146c1.458-.214,4.71-1.776,5.491-3.88.506-1.4.793-3.313.329-4.082Zm-2.05,3.453c-.421,1.147-2.813,2.52-4.021,2.7a9.017,9.017,0,0,1-4.027-.244A40.537,40.537,0,0,1,41.3,51.916c-5.528-2.349-9.579-7.248-11.5-9.964-.067-.1-.116-.165-.153-.207-.61-.824-2.679-3.74-2.679-6.6a6.747,6.747,0,0,1,2.074-5L29.19,30a1.69,1.69,0,0,1,1.22-.574h1.513c.2,0,.311,0,.574.61.2.458.482,1.135.781,1.83.8,1.916,1.293,3.1,1.416,3.344s.1.311.061.384l-.1.2a2.917,2.917,0,0,1-.476.769L33.8,37a9.183,9.183,0,0,1-.61.714,1.91,1.91,0,0,0-.451,2.532,21.588,21.588,0,0,0,4.094,5.015,19.214,19.214,0,0,0,5.436,3.386l.421.183A2.008,2.008,0,0,0,45.3,48.45c.354-.4,1.782-2.044,2.3-2.807.049-.073.085-.11.092-.122a2.121,2.121,0,0,1,.427.122c.549.2,3.8,1.763,4.71,2.209l.4.2c.189.085.409.2.537.268A6.656,6.656,0,0,1,53.273,50.885Z" transform="translate(-25.137 -27.62)"/></svg>