<svg xmlns="http://www.w3.org/2000/svg" width="52" height="52" viewBox="0 0 52 52"><defs><style>.a,.d{fill:none;}.a{stroke:#fff;}.b{fill:#fff;fill-rule:evenodd;}.c{stroke:none;}</style></defs><g transform="translate(-592 -8980)"><g class="a" transform="translate(592 8980)"><circle class="c" cx="26" cy="26" r="26"/><circle class="d" cx="26" cy="26" r="25.5"/></g><path class="b" d="M757.228,274.6c-.019.064-.036.119-.051.174-.828,3.247-.92,3.967-1.772,5.475a16.847,16.847,0,0,1-1.37,2.045c-.057.073-.11.168-.224.145s-.135-.139-.149-.239a17.5,17.5,0,0,1-.179-2.972c.043-1.3.2-1.742,1.876-8.776a.482.482,0,0,0-.039-.293,4.95,4.95,0,0,1-.13-3.287c.757-2.4,3.476-2.582,3.952-.6.293,1.224-.483,2.826-1.078,5.194-.492,1.954,1.807,3.343,3.773,1.917,1.813-1.315,2.516-4.467,2.383-6.7-.264-4.454-5.148-5.417-8.247-3.982-3.553,1.642-4.36,6.046-2.756,8.058.2.256.36.413.293.672-.1.4-.194.809-.306,1.209a.428.428,0,0,1-.634.284,3.641,3.641,0,0,1-1.484-1.111c-1.362-1.687-1.752-5.023.049-7.848a9.43,9.43,0,0,1,9.1-4.011,7.7,7.7,0,0,1,7.085,6.363,10.594,10.594,0,0,1-1.945,7.444c-2.308,2.862-6.049,3.052-7.775,1.3C757.465,274.916,757.358,274.758,757.228,274.6Z" transform="translate(-141.445 8734.625)"/></g></svg>