<svg xmlns="http://www.w3.org/2000/svg" xmlns:xlink="http://www.w3.org/1999/xlink" width="1320" height="156" viewBox="0 0 1320 156"><defs><style>.a{fill:#2b2a29;}.b,.c{fill:rgba(255,255,255,0.92);font-size:19px;}.b{font-family:FuturaPT-Medium, Futura PT;font-weight:500;}.c{font-family:FuturaPT-Book, Futura PT;}.d{fill:url(#a);}.e{fill:url(#c);}.f{fill:url(#d);}.g{fill:url(#i);}.h{fill:url(#l);}.i{fill:#dbdbdb;font-size:20px;font-family:IndianRupee-Regular, Indian Rupee;}</style><radialGradient id="a" cx="0.5" cy="0.5" r="0.753" gradientTransform="matrix(0.961, -0.278, 0.278, 0.961, -0.119, 0.159)" gradientUnits="objectBoundingBox"><stop offset="0" stop-color="#fff"/><stop offset="1" stop-color="gray"/></radialGradient><radialGradient id="c" r="0.949" gradientTransform="matrix(0.589, -0.808, 0.687, 0.501, -0.138, 0.654)" xlink:href="#a"/><radialGradient id="d" cx="1" cy="-0.261" r="2.008" gradientTransform="matrix(0.477, -0.879, 1.114, 0.605, 0.813, 0.776)" xlink:href="#a"/><radialGradient id="i" r="0.726" gradientTransform="translate(0 0)" xlink:href="#a"/><linearGradient id="l" x1="0.5" x2="0.5" y2="1" gradientUnits="objectBoundingBox"><stop offset="0" stop-color="#fff"/><stop offset="1" stop-color="#545454"/></linearGradient></defs><g transform="translate(348 -544)"><rect class="a" width="1320" height="156" rx="78" transform="translate(-348 544)"/><g transform="translate(249.3 561.405)"><g transform="translate(0 72.295)"><text class="b" transform="translate(62.7 19.3)"><tspan x="-86.744" y="0">PROFESSIONAL CARE</tspan></text><text class="c" transform="translate(62.7 42.3)"><tspan x="-61.636" y="0">&amp; Beauty Brands</tspan></text></g><g transform="translate(35.1)"><g transform="translate(0 0)"><path class="d" d="M32.75,71.132a8.655,8.655,0,0,0,6.136,2.488A9.1,9.1,0,0,0,45.52,70.8L71.308,45.012a8,8,0,0,0,2.322-5.307V20.219A6.228,6.228,0,0,0,67.411,14H47.925a7.624,7.624,0,0,0-5.307,2.322L16.83,42.193a9.039,9.039,0,0,0-.249,12.77Zm-14.179-27.2L44.359,18.146a5.2,5.2,0,0,1,3.566-1.575H67.411a3.994,3.994,0,0,1,2.653,1.078A3.5,3.5,0,0,1,71.143,20.3l.083,19.4a5.232,5.232,0,0,1-1.575,3.649L43.779,69.142a6.564,6.564,0,0,1-9.287.249l-16.17-16.17A6.563,6.563,0,0,1,18.571,43.934Z" transform="translate(-14.06 -14)"/></g><path class="d" d="M65,37.5a1.442,1.442,0,0,1-.362-.59l-.876-2.725-2.741-.823a1.442,1.442,0,0,1-.43-2.551L62.877,29.1l-.028-2.83a1.441,1.441,0,0,1,2.293-1.189l2.31,1.689,2.7-.945A1.442,1.442,0,0,1,72,27.635l-.893,2.719,1.734,2.277a1.443,1.443,0,0,1-1.152,2.316l-2.862-.009L67.2,37.291a1.446,1.446,0,0,1-2.2.21Zm-.468-4.1a.516.516,0,0,1,.13.211l.959,2.983a.408.408,0,0,0,.725.108l1.784-2.576a.515.515,0,0,1,.426-.222l3.133.009a.408.408,0,0,0,.327-.656l-1.9-2.493a.518.518,0,0,1-.08-.474l.978-2.977a.409.409,0,0,0-.524-.513l-2.957,1.035a.515.515,0,0,1-.475-.07l-2.529-1.849a.408.408,0,0,0-.65.338l.031,3.1a.515.515,0,0,1-.206.419l-2.5,1.875a.4.4,0,0,0-.172.4.4.4,0,0,0,.285.323l3,.9A.51.51,0,0,1,64.534,33.4Z" transform="translate(-21.905 -15.845)"/></g></g><g transform="translate(-192.55 567.067)"><g transform="translate(0 66.633)"><text class="b" transform="translate(59.55 19.3)"><tspan x="-60.43" y="0">FREE SHIPPING</tspan></text><text class="c" transform="translate(60.55 42.3)"><tspan x="-52.126" y="0">Above Rs.750</tspan></text></g><path class="e" d="M71.311,37.516,60.246,25.733a1.326,1.326,0,0,0-.862-.359H46.308V19.051A6.255,6.255,0,0,0,40.057,12.8H7.151A6.255,6.255,0,0,0,.9,19.051h0V59.07a1.211,1.211,0,0,0,1.221,1.221h4.6a7.386,7.386,0,0,0,14.657,0H49.685a7.386,7.386,0,0,0,14.657,0h6.179a1.211,1.211,0,0,0,1.221-1.221V38.378A1.958,1.958,0,0,0,71.311,37.516Zm-2.084,1.293V40.1H54.5V27.816H58.81ZM7.151,15.171H40.057a3.864,3.864,0,0,1,3.88,3.88v28.38H3.271V19.051A3.864,3.864,0,0,1,7.151,15.171Zm6.9,49.144a4.958,4.958,0,1,1,4.958-4.958A4.967,4.967,0,0,1,14.048,64.315Zm0-12.358a7.4,7.4,0,0,0-7.257,5.892H3.271V49.874H43.865v7.975H21.233A7.322,7.322,0,0,0,14.048,51.957ZM56.941,64.315A4.958,4.958,0,1,1,61.9,59.358,4.967,4.967,0,0,1,56.941,64.315ZM64.2,57.849a7.415,7.415,0,0,0-14.513,0H46.236V27.816h5.82V41.4a1.211,1.211,0,0,0,1.221,1.221h15.95v15.3H64.2Z" transform="translate(26.4 -12.8)"/></g><g transform="translate(18.5 557.968)"><g transform="translate(0 75.732)"><text class="b" transform="translate(65.5 19.3)"><tspan x="-64.866" y="0">100% GENUINE</tspan></text><text class="c" transform="translate(66.5 42.3)"><tspan x="-30.856" y="0">Products</tspan></text></g><g transform="translate(42.9 0)"><path class="f" d="M36.756,87.068l-5.492,14.824L28.14,97.439a1.04,1.04,0,0,0-1.126-.4l-5.3,1.458,5.9-15.937a10.451,10.451,0,0,1-.763-1.678c-.037-.1-.082-.218-.126-.332-.181-.036-.363-.069-.544-.1L19.065,99.671a1.039,1.039,0,0,0,1.25,1.363l6.545-1.8,3.841,5.474a1.039,1.039,0,0,0,1.825-.236l6.3-17a4.456,4.456,0,0,1-.948-.053A4.546,4.546,0,0,1,36.756,87.068Z" transform="translate(-18.48 -38.653)"/><path class="f" d="M83.477,80.443c-.182.034-.364.066-.545.1-.045.113-.089.233-.126.331a10.408,10.408,0,0,1-.763,1.678l5.905,15.937-5.3-1.458a1.041,1.041,0,0,0-1.126.4L78.4,101.892,72.91,87.068a4.551,4.551,0,0,1-1.119.352,4.477,4.477,0,0,1-.768.066c-.061,0-.118-.008-.178-.01l6.3,16.993a1.039,1.039,0,0,0,1.825.236l3.841-5.474,6.545,1.8a1.039,1.039,0,0,0,1.25-1.363Z" transform="translate(-43.393 -38.654)"/><path class="f" d="M46.043,46.718A4.39,4.39,0,0,0,48.416,45a3.765,3.765,0,0,1,1.052-.985,3.861,3.861,0,0,1,1.486.081,4.287,4.287,0,0,0,2.891-.191,4.244,4.244,0,0,0,1.624-2.412,3.74,3.74,0,0,1,.655-1.294,3.81,3.81,0,0,1,1.41-.421A4.284,4.284,0,0,0,60.2,38.614a4.211,4.211,0,0,0,.7-2.809,3.714,3.714,0,0,1,.174-1.445,3.787,3.787,0,0,1,1.168-.86,4.27,4.27,0,0,0,2.118-2.012,4.188,4.188,0,0,0-.315-2.863,3.744,3.744,0,0,1-.339-1.433,3.729,3.729,0,0,1,.788-1.182,4.265,4.265,0,0,0,1.3-2.632,4.265,4.265,0,0,0-1.3-2.632,3.736,3.736,0,0,1-.789-1.183,3.754,3.754,0,0,1,.34-1.432,4.188,4.188,0,0,0,.315-2.863,4.272,4.272,0,0,0-2.118-2.012,3.784,3.784,0,0,1-1.168-.859,3.737,3.737,0,0,1-.174-1.446,4.208,4.208,0,0,0-.7-2.809,4.287,4.287,0,0,0-2.665-1.164,3.83,3.83,0,0,1-1.41-.421,3.726,3.726,0,0,1-.655-1.294A4.247,4.247,0,0,0,53.845,2.85a4.285,4.285,0,0,0-2.891-.191,3.849,3.849,0,0,1-1.486.081,3.757,3.757,0,0,1-1.052-.985A4.289,4.289,0,0,0,46.044.035a4.254,4.254,0,0,0-2.76.8,3.829,3.829,0,0,1-1.388.587A3.829,3.829,0,0,1,40.509.836a4.257,4.257,0,0,0-2.759-.8,4.288,4.288,0,0,0-2.372,1.72,3.757,3.757,0,0,1-1.052.985,3.829,3.829,0,0,1-1.486-.081,4.284,4.284,0,0,0-2.891.191,4.241,4.241,0,0,0-1.624,2.411,3.731,3.731,0,0,1-.655,1.294,3.81,3.81,0,0,1-1.41.421A4.287,4.287,0,0,0,23.594,8.14a4.211,4.211,0,0,0-.7,2.809,3.718,3.718,0,0,1-.174,1.446,3.787,3.787,0,0,1-1.168.86,4.269,4.269,0,0,0-2.118,2.012,4.19,4.19,0,0,0,.315,2.863,3.743,3.743,0,0,1,.339,1.432,3.724,3.724,0,0,1-.788,1.182A4.265,4.265,0,0,0,18,23.377a4.265,4.265,0,0,0,1.3,2.632,3.742,3.742,0,0,1,.789,1.183,3.754,3.754,0,0,1-.34,1.432,4.188,4.188,0,0,0-.315,2.863A4.272,4.272,0,0,0,21.555,33.5a3.792,3.792,0,0,1,1.168.859A3.736,3.736,0,0,1,22.9,35.8a4.211,4.211,0,0,0,.7,2.809,4.287,4.287,0,0,0,2.665,1.164,3.819,3.819,0,0,1,1.41.42,3.731,3.731,0,0,1,.655,1.294A4.247,4.247,0,0,0,29.948,43.9a4.282,4.282,0,0,0,2.891.191,3.839,3.839,0,0,1,1.486-.081A3.772,3.772,0,0,1,35.377,45a4.286,4.286,0,0,0,2.372,1.72,4.267,4.267,0,0,0,2.76-.8,3.838,3.838,0,0,1,1.388-.586,3.838,3.838,0,0,1,1.388.586A4.27,4.27,0,0,0,46.043,46.718ZM44.3,44.106a5.063,5.063,0,0,0-2.4-.852,5.063,5.063,0,0,0-2.4.852,3.218,3.218,0,0,1-1.387.565c-.315-.055-.779-.594-1.152-1.028a4.942,4.942,0,0,0-1.922-1.584,5.053,5.053,0,0,0-2.53-.016,3.286,3.286,0,0,1-1.519.057c-.267-.153-.514-.811-.713-1.34A4.934,4.934,0,0,0,29,38.6a5.015,5.015,0,0,0-2.365-.868,3.3,3.3,0,0,1-1.455-.463,3.214,3.214,0,0,1-.2-1.486,4.931,4.931,0,0,0-.457-2.473A4.956,4.956,0,0,0,22.6,31.7c-.493-.287-1.107-.644-1.213-.933a3.22,3.22,0,0,1,.322-1.447,4.965,4.965,0,0,0,.429-2.494A4.879,4.879,0,0,0,20.9,24.68c-.366-.439-.822-.987-.822-1.3s.456-.863.822-1.3a4.879,4.879,0,0,0,1.238-2.151,4.966,4.966,0,0,0-.429-2.494,3.218,3.218,0,0,1-.322-1.446c.106-.289.72-.646,1.213-.934a4.953,4.953,0,0,0,1.917-1.608,4.926,4.926,0,0,0,.457-2.473,3.211,3.211,0,0,1,.205-1.485,3.28,3.28,0,0,1,1.455-.463A5.011,5.011,0,0,0,29,8.152a4.936,4.936,0,0,0,1.271-2.16c.2-.529.446-1.187.713-1.34a3.29,3.29,0,0,1,1.518.057,5.047,5.047,0,0,0,2.53-.015A4.933,4.933,0,0,0,36.952,3.11c.373-.433.837-.973,1.153-1.028a3.288,3.288,0,0,1,1.387.565,5.063,5.063,0,0,0,2.4.852,5.063,5.063,0,0,0,2.4-.852,3.223,3.223,0,0,1,1.387-.565c.315.055.779.594,1.152,1.028a4.938,4.938,0,0,0,1.922,1.584,5.064,5.064,0,0,0,2.53.016,3.278,3.278,0,0,1,1.519-.057c.267.153.514.811.713,1.34a4.934,4.934,0,0,0,1.27,2.16,5.014,5.014,0,0,0,2.365.868,3.291,3.291,0,0,1,1.455.464,3.212,3.212,0,0,1,.2,1.485,4.931,4.931,0,0,0,.457,2.473,4.956,4.956,0,0,0,1.917,1.608c.493.287,1.107.645,1.213.933a3.22,3.22,0,0,1-.322,1.447,4.966,4.966,0,0,0-.429,2.494,4.879,4.879,0,0,0,1.238,2.151c.366.439.822.987.822,1.3s-.456.863-.822,1.3a4.879,4.879,0,0,0-1.238,2.151,4.966,4.966,0,0,0,.429,2.494,3.219,3.219,0,0,1,.322,1.446c-.106.289-.72.647-1.213.934a4.957,4.957,0,0,0-1.917,1.608,4.926,4.926,0,0,0-.457,2.473,3.209,3.209,0,0,1-.205,1.485,3.286,3.286,0,0,1-1.455.464,5,5,0,0,0-2.365.868,4.931,4.931,0,0,0-1.271,2.16c-.2.529-.446,1.187-.713,1.34a3.3,3.3,0,0,1-1.518-.057,5.047,5.047,0,0,0-2.53.015,4.942,4.942,0,0,0-1.922,1.584c-.373.434-.837.973-1.153,1.028A3.282,3.282,0,0,1,44.3,44.106Z" transform="translate(-18 0)"/><path class="f" d="M65.091,31.546A14.546,14.546,0,1,0,50.546,46.091h0A14.562,14.562,0,0,0,65.091,31.546ZM50.546,44.013A12.468,12.468,0,1,1,63.013,31.546,12.468,12.468,0,0,1,50.546,44.013Z" transform="translate(-26.649 -8.168)"/><path class="f" d="M60.064,32.656a.772.772,0,0,0-.625-.528l-3.595-.513-1.605-3.192a.771.771,0,0,0-1.377,0l-1.605,3.192-3.595.513a.771.771,0,0,0-.424,1.32l2.593,2.48-.612,3.5a.771.771,0,0,0,1.112.817l3.219-1.661,3.219,1.661a.784.784,0,0,0,.81-.064.772.772,0,0,0,.3-.754l-.612-3.5,2.593-2.48A.771.771,0,0,0,60.064,32.656ZM55.908,35.1a.77.77,0,0,0-.227.69l.415,2.374L53.9,37.032a.8.8,0,0,0-.707,0l-2.192,1.131.415-2.374a.77.77,0,0,0-.227-.69l-1.744-1.669,2.424-.346a.77.77,0,0,0,.58-.417l1.1-2.183,1.1,2.183a.77.77,0,0,0,.58.417l2.424.346Z" transform="translate(-29.654 -11.307)"/></g></g><g transform="translate(448.35 563.376)"><g transform="translate(0 70.324)"><text class="b" transform="translate(82.65 19.3)"><tspan x="-54.739" y="0">350+ BEAUTY</tspan></text><text class="c" transform="translate(81.65 42.3)"><tspan x="-81.063" y="0">Service @ 80+ Salons</tspan></text></g><g transform="translate(57.799)"><g transform="translate(0 0)"><path class="g" d="M106.315,93.249,100.8,90.883c3.553-6.661,5.554-15.511,5.554-20.723a19.161,19.161,0,0,0-38.321,0c0,5.171,1.94,13.932,5.554,20.723l-5.519,2.365C63.642,95.144,61,100.874,61,105.319a1.358,1.358,0,0,0,1.358,1.358h49.663a1.358,1.358,0,0,0,1.358-1.358C113.379,100.874,110.737,95.144,106.315,93.249ZM94.483,86.31a1.342,1.342,0,0,1,.013-1.842A10.79,10.79,0,0,0,97.666,76.8V75.4a20.274,20.274,0,0,0,5.506-.38A49.82,49.82,0,0,1,98.32,89.756,18.648,18.648,0,0,1,94.483,86.31Zm9.152-16.149c0,.595-.032,1.259-.094,1.983A17.66,17.66,0,0,1,81.372,54.775a16.453,16.453,0,0,1,22.262,15.385ZM78.679,56.09a20.222,20.222,0,0,0,1.091,5.644,10.871,10.871,0,0,0-3.832,8.277V76.8a10.852,10.852,0,0,0,3.792,8.244,1.369,1.369,0,0,1,.111,2,13.845,13.845,0,0,1-3.763,2.74,47.928,47.928,0,0,1-5.333-19.627A16.453,16.453,0,0,1,78.679,56.09ZM63.812,103.961c.443-3.246,2.395-6.962,5.322-8.216,8.494-3.64,6.618-2.834,6.9-2.957a16.717,16.717,0,0,0,5.752-3.844,4.085,4.085,0,0,0-.286-5.959A8.139,8.139,0,0,1,78.654,76.8v-6.79a8.151,8.151,0,0,1,2.252-5.621A20.439,20.439,0,0,0,94.95,75.034V76.8a8.091,8.091,0,0,1-2.377,5.749,4.059,4.059,0,0,0-.113,5.571c3.681,4.111,5.609,4.494,5.888,4.667l6.9,2.956c2.927,1.254,4.879,4.971,5.322,8.216H63.812Z" transform="translate(-61 -51)"/><path class="g" d="M264.775,103.716a7.552,7.552,0,0,1,7.544,7.543,1.358,1.358,0,1,0,2.716,0A10.271,10.271,0,0,0,264.775,101a1.358,1.358,0,0,0,0,2.716Z" transform="translate(-235.929 -94.21)"/><path class="g" d="M226.954,251.4a1.357,1.357,0,0,1-1.921,0,1.358,1.358,0,0,0-1.921,1.921,4.079,4.079,0,0,0,5.762,0,1.358,1.358,0,0,0-1.92-1.921Z" transform="translate(-200.755 -223.84)"/></g></g></g><g transform="translate(677.35 563.376)"><g transform="translate(0 70.324)"><text class="b" transform="translate(82.65 19.3)"><tspan x="-93.898" y="0">EARN REWARD POINTS</tspan></text><text class="c" transform="translate(81.65 42.3)"><tspan x="-75.535" y="0">With Every Purchase</tspan></text></g><g transform="translate(233.187 33.313)"><path class="h" d="M-109.264-24.963a1.432,1.432,0,0,0,1.432-1.432,2.916,2.916,0,0,1,2.916-2.916A2.916,2.916,0,0,1-102-26.395a1.432,1.432,0,0,0,1.434,1.43,1.432,1.432,0,0,0,1.43-1.43,5.78,5.78,0,0,0-5.78-5.78,5.78,5.78,0,0,0-5.78,5.78A1.432,1.432,0,0,0-109.264-24.963Z" transform="translate(-44.871)"/><path class="h" d="M-149.787,2.741a23.75,23.75,0,0,0-23.75,23.751,23.75,23.75,0,0,0,23.751,23.75,23.75,23.75,0,0,0,23.75-23.75A23.777,23.777,0,0,0-149.787,2.741Zm0,44.636a20.886,20.886,0,0,1-20.885-20.886A20.886,20.886,0,0,1-149.786,5.605,20.886,20.886,0,0,1-128.9,26.491,20.909,20.909,0,0,1-149.787,47.377Z" transform="translate(0 -24.932)"/><path class="h" d="M-130.27,29.5a1.432,1.432,0,0,0-1.432-1.432,16.526,16.526,0,0,0-16.507,16.507,1.432,1.432,0,0,0,1.432,1.432,1.432,1.432,0,0,0,1.432-1.432A13.658,13.658,0,0,1-131.7,30.935,1.432,1.432,0,0,0-130.27,29.5Z" transform="translate(-18.085 -43.018)"/><path class="h" d="M-79.487,80.291a1.432,1.432,0,0,0-1.432,1.432A13.658,13.658,0,0,1-94.562,95.366,1.432,1.432,0,0,0-96,96.8a1.433,1.433,0,0,0,1.43,1.434h0A16.526,16.526,0,0,0-78.055,81.723,1.432,1.432,0,0,0-79.487,80.291Z" transform="translate(-55.368 -80.306)"/><text class="i" transform="translate(-154.73 8.224)"><tspan x="0" y="0">`</tspan></text></g></g></g></svg>