<svg xmlns="http://www.w3.org/2000/svg" xmlns:xlink="http://www.w3.org/1999/xlink" width="56.525" height="50.867" viewBox="0 0 56.525 50.867"><defs><style>.a{stroke:rgba(0,0,0,0);opacity:0.5;fill:url(#a);}.b{fill:#2b2a29;}.c{fill:#e31e24;}.d{fill:none;stroke:#2b2a29;stroke-linecap:round;}</style><linearGradient id="a" x1="0.07" y1="0.878" x2="1.822" y2="0.536" gradientUnits="objectBoundingBox"><stop offset="0" stop-color="#e6e6e6"/><stop offset="1" stop-color="#9ea4ac"/></linearGradient></defs><g transform="translate(0.58 0.443)"><path class="a" d="M100.206,489.969c-7.1-2.908-22.5-23.027-15.469-38.537s13.511-10.745,20.611-7.837,9.691,10.023,14.432,10.062,6.586.462,12.37,1.586,8.571,7.986,3.685,14.19-7.41,8.205-16.317,13.339-14.349,9.23-19.312,7.2" transform="translate(-82.94 -440.558)"/><g transform="translate(8.361 13.317)"><path class="b" d="M34.091,60.975H32.562a12.3,12.3,0,0,0-1.315-3.383c-.75-1.681-1.683-1.962-1.683-3.341a8.415,8.415,0,0,1,1.029-3.223A1.029,1.029,0,0,0,29.564,50a7.479,7.479,0,0,0-4.869,1.8,19.573,19.573,0,0,0-8.277-1.779C7.365,50.018,0,55.862,0,63.044a11.654,11.654,0,0,0,4.021,8.521A7.782,7.782,0,0,1,6.6,77.232a1.029,1.029,0,0,0,1.029,1.029H12a1.029,1.029,0,0,0,1.029-1.029V75.791a20.791,20.791,0,0,0,6.791,0v1.441a1.029,1.029,0,0,0,1.029,1.029h4.359a1.029,1.029,0,0,0,1.029-1.032,7.81,7.81,0,0,1,7.851-7.7A1.029,1.029,0,0,0,35.12,68.5V62A1.029,1.029,0,0,0,34.091,60.975ZM33.062,67.52A9.884,9.884,0,0,0,24.238,76.2H21.882V74.538a1.029,1.029,0,0,0-1.264-1,18.663,18.663,0,0,1-8.379,0,1.029,1.029,0,0,0-1.263,1V76.2H8.595a9.95,9.95,0,0,0-3.178-6.151,9.627,9.627,0,0,1-3.359-7.008c0-6.475,7.106-10.968,14.36-10.968a17.917,17.917,0,0,1,8.055,1.878,1.029,1.029,0,0,0,1.158-.219,5.517,5.517,0,0,1,2.9-1.58,4.409,4.409,0,0,0-.561,2.1,6.431,6.431,0,0,0,.771,2.57,19.286,19.286,0,0,1,1.5,2.571c.48,1.325.232,1.106.418,2.729a1.029,1.029,0,0,0,1.022.912h1.377Z" transform="translate(0 -50)"/><path class="c" d="M159.4,120.179a13.041,13.041,0,0,0-4.278-.9,11.355,11.355,0,0,0-4.091.9,1.029,1.029,0,0,0,0,2.058,10.8,10.8,0,0,1,4.025-.9,13.674,13.674,0,0,1,4.344.9,1.029,1.029,0,0,0,0-2.058Z" transform="translate(-139.711 -115.378)"/><ellipse class="b" cx="1.098" cy="0.915" rx="1.098" ry="0.915" transform="translate(24.877 9.009)"/></g><circle class="c" cx="4.991" cy="4.991" r="4.991" transform="translate(18.715 2.495)"/><path class="d" d="M7.34,2.69c-2.539,1.076-3.863.946-4.58-.3A1.641,1.641,0,0,1,5.1.269c1.628.966,0,4.939-2.483,4.724A2.625,2.625,0,0,1,0,2.69" transform="translate(3.524 18.76) rotate(33)"/></g></svg>