<svg xmlns="http://www.w3.org/2000/svg" width="52" height="52" viewBox="0 0 52 52"><defs><style>.a,.d{fill:none;}.a{stroke:#fff;}.b{fill:#fff;}.c{stroke:none;}</style></defs><g transform="translate(-519 -8980)"><g class="a" transform="translate(519 8980)"><circle class="c" cx="26" cy="26" r="26"/><circle class="d" cx="26" cy="26" r="25.5"/></g><path class="b" d="M764.1,207.465a9.108,9.108,0,0,1-2.231.636c.359-.061.885-.71,1.1-.973a4.1,4.1,0,0,0,.741-1.35c.02-.039.034-.087,0-.116a.128.128,0,0,0-.119.01,11.359,11.359,0,0,1-2.646,1.012.176.176,0,0,1-.182-.048,2.168,2.168,0,0,0-.231-.236,4.692,4.692,0,0,0-1.282-.786,4.467,4.467,0,0,0-1.966-.316,4.7,4.7,0,0,0-1.865.527,4.809,4.809,0,0,0-1.5,1.229,4.623,4.623,0,0,0-.9,1.8,4.875,4.875,0,0,0-.048,1.9c.015.107.005.121-.091.107a14.132,14.132,0,0,1-9.09-4.627c-.106-.121-.163-.121-.25.009a4.609,4.609,0,0,0,.786,5.446c.178.169.361.338.558.492a4.63,4.63,0,0,1-1.754-.492c-.106-.067-.16-.029-.169.092a2.8,2.8,0,0,0,.029.52,4.66,4.66,0,0,0,2.873,3.716,2.733,2.733,0,0,0,.583.179,5.2,5.2,0,0,1-1.72.053c-.125-.024-.173.039-.125.159a4.84,4.84,0,0,0,3.614,3.027c.164.028.328.028.492.067-.01.015-.019.015-.029.029a5.721,5.721,0,0,1-2.468,1.308,8.838,8.838,0,0,1-3.749.48c-.2-.03-.244-.027-.3,0s-.007.083.058.134c.255.169.516.319.781.463a12.382,12.382,0,0,0,2.506,1,13.349,13.349,0,0,0,12.959-3.03c2.655-2.639,3.587-6.277,3.587-9.92,0-.143.168-.221.268-.3a8.754,8.754,0,0,0,1.764-1.834.559.559,0,0,0,.117-.351v-.019C764.192,207.406,764.19,207.423,764.1,207.465Z" transform="translate(-207.625 8791.814)"/></g></svg>