<svg xmlns="http://www.w3.org/2000/svg" width="35.229" height="21.436" viewBox="0 0 35.229 21.436"><defs><style>.va{fill:#fff;stroke:#e6e6e6;stroke-miterlimit:10;}.sb{fill:#293688;}</style></defs><g transform="translate(0.5 0.5)"><path class="va" d="M163.721,120.27h27.788a3.229,3.229,0,0,1,3.22,3.22v14a3.23,3.23,0,0,1-3.22,3.22H163.721a3.23,3.23,0,0,1-3.221-3.22v-14a3.229,3.229,0,0,1,3.221-3.22Z" transform="translate(-160.5 -120.27)"/><g transform="translate(15.297 8.712)"><path class="sb" d="M635.669,390.89l-.039.039" transform="translate(-635.63 -390.89)"/><path class="sb" d="M635.669,390.929l-.039-.039" transform="translate(-635.63 -390.89)"/></g><g transform="translate(14.753 8.8)"><path class="sb" d="M618.805,394.51h-.055" transform="translate(-618.75 -394.483)"/><path class="sb" d="M619.63,393.725v-.055" transform="translate(-619.602 -393.67)"/></g><path class="sb" d="M598.29,344.162l1.151-6.472h1.8l-1.115,6.472Z" transform="translate(-584.195 -330.692)"/><path class="sb" d="M598.29,344.162l1.474-6.472h1.474l-1.115,6.472Z" transform="translate(-584.195 -330.692)"/><path class="sb" d="M692.021,331.278a4.552,4.552,0,0,0-1.654-.288c-1.8,0-3.091.9-3.091,2.193,0,.971.9,1.474,1.618,1.8s.934.539.934.827c0,.432-.575.647-1.079.647a3.906,3.906,0,0,1-1.726-.36l-.252-.108-.252,1.474a5.836,5.836,0,0,0,2.05.36c1.906,0,3.164-.9,3.164-2.265,0-.755-.467-1.331-1.545-1.8-.647-.324-1.043-.5-1.043-.827,0-.288.324-.575,1.043-.575a3.292,3.292,0,0,1,1.366.252l.18.072.287-1.4Z" transform="translate(-669.585 -324.208)"/><path class="sb" d="M692.021,331.278a4.552,4.552,0,0,0-1.654-.288c-1.8,0-2.769.9-2.769,2.193a1.88,1.88,0,0,0,1.294,1.8c.719.324.934.539.934.827,0,.432-.575.647-1.079.647a3.906,3.906,0,0,1-1.726-.36l-.252-.108-.25,1.474a5.836,5.836,0,0,0,2.05.36c1.906,0,3.164-.9,3.164-2.265,0-.755-.467-1.331-1.545-1.8-.647-.324-1.043-.5-1.043-.827,0-.288.324-.575,1.043-.575a3.292,3.292,0,0,1,1.366.252l.18.072.287-1.4Z" transform="translate(-669.585 -324.208)"/><path class="sb" d="M844.272,337.69c-.431,0-.755.036-.934.467l-2.7,6h1.943l.36-1.079h2.3l.216,1.079h1.726l-1.512-6.472ZM843.445,342c.108-.322.719-1.906.719-1.906s.144-.4.252-.647l.108.612s.359,1.618.431,1.978h-1.51Z" transform="translate(-818.743 -330.692)"/><path class="sb" d="M844.7,337.69c-.431,0-.755.036-.934.467l-3.129,6h1.943l.36-1.079h2.3l.216,1.079h1.726l-1.512-6.472ZM843.445,342c.144-.36.719-1.906.719-1.906s.144-.4.252-.647l.108.612s.359,1.618.431,1.978h-1.51Z" transform="translate(-818.743 -330.692)"/><path class="sb" d="M414.487,343.324l-.18-.934a5.2,5.2,0,0,0-2.517-2.84l1.617,5.751h1.942l2.912-6.471h-1.941Z" transform="translate(-403.7 -331.795)"/><path class="sb" d="M414.487,343.324l-.18-.934a5.2,5.2,0,0,0-2.517-2.84l1.617,5.751h1.942l2.912-6.471H416.68Z" transform="translate(-403.7 -331.795)"/><path class="sb" d="M340.31,337.69l.324.072a6.067,6.067,0,0,1,4.5,3.523l-.647-3.056c-.108-.431-.431-.539-.827-.539Z" transform="translate(-334.521 -330.692)"/><path class="sb" d="M340.31,337.69h0c2.3.539,4.208,1.942,4.819,3.56l-.612-2.552a.878.878,0,0,0-.863-.683Z" transform="translate(-334.521 -330.692)"/><path class="sb" d="M340.31,337.69h0c2.3.539,4.208,1.942,4.819,3.56l-.431-1.4a1.269,1.269,0,0,0-.755-1.043Z" transform="translate(-334.521 -330.692)"/><path class="sb" d="M417.359,363.6l-1.223-1.223-.575,1.366-.144-.9A5.216,5.216,0,0,0,412.9,360l1.618,5.753h1.942Z" transform="translate(-404.774 -352.284)"/><path class="sb" d="M600.124,491.162l-1.546-1.582-.288,1.582Z" transform="translate(-584.195 -477.69)"/><path class="sb" d="M689.648,469.48h0c.144.144.216.251.18.4,0,.431-.575.647-1.079.647a3.91,3.91,0,0,1-1.726-.359l-.252-.108-.252,1.474a5.829,5.829,0,0,0,2.05.36,3.554,3.554,0,0,0,2.625-.9Z" transform="translate(-669.585 -458.239)"/><path class="sb" d="M848.46,397.13h1.692l.36-1.079h2.3l.216,1.079h1.726l-.612-2.625-2.157-2.085.108.575s.359,1.618.431,1.977h-1.512c.144-.36.719-1.906.719-1.906s.144-.4.252-.647" transform="translate(-826.311 -383.659)"/></g></svg>