<svg xmlns="http://www.w3.org/2000/svg" width="34.453" height="33.901" viewBox="0 0 34.453 33.901"><defs><style>.a{fill:#fff;}</style></defs><path class="a" d="M45.636,41.074a1.949,1.949,0,0,0-.916-.659l-.257-.124c-.025,0-2.789-1.363-3.315-1.554a1.373,1.373,0,0,0-1.8.468c-.269.414-1.086,1.355-1.463,1.782-.033.037-.058.054-.058.058a.681.681,0,0,1-.24-.087c-.083-.041-.2-.091-.344-.153a11.766,11.766,0,0,1-3.36-2.072,13.494,13.494,0,0,1-2.532-3.108l-.058-.066a1.506,1.506,0,0,1,.137-.145c.166-.162.344-.377.514-.58l.24-.282a3.424,3.424,0,0,0,.5-.783l.062-.128a1.454,1.454,0,0,0-.037-1.384c-.075-.145-.568-1.326-.928-2.188l-.526-1.264c-.443-1.048-1.015-1.181-1.545-1.185H28.689a2.374,2.374,0,0,0-1.728.787l-.087.091a5.8,5.8,0,0,0-1.736,4.251,9.562,9.562,0,0,0,2.072,5.237l.07.1c1.384,1.947,4.3,5.473,8.341,7.189A27.842,27.842,0,0,0,38.4,46.29a6.8,6.8,0,0,0,2.034.307,7.953,7.953,0,0,0,1.243-.1c.99-.145,3.2-1.206,3.729-2.635a4.2,4.2,0,0,0,.224-2.772Zm-1.392,2.345a4.444,4.444,0,0,1-2.73,1.836,6.123,6.123,0,0,1-2.735-.166,27.529,27.529,0,0,1-2.664-.97,19.918,19.918,0,0,1-7.81-6.766c-.046-.066-.079-.112-.1-.141a8.545,8.545,0,0,1-1.819-4.479A4.582,4.582,0,0,1,27.79,29.34l.1-.1a1.147,1.147,0,0,1,.829-.389h1.028c.133,0,.211,0,.389.414.133.311.327.771.53,1.243.543,1.3.878,2.1.961,2.271s.066.211.041.261l-.07.133a1.981,1.981,0,0,1-.323.522l-.253.3a6.234,6.234,0,0,1-.414.485A1.3,1.3,0,0,0,30.3,36.2a14.66,14.66,0,0,0,2.78,3.406,13.048,13.048,0,0,0,3.692,2.3l.286.124a1.364,1.364,0,0,0,1.773-.261c.24-.269,1.21-1.388,1.562-1.906.033-.05.058-.075.062-.083a1.44,1.44,0,0,1,.29.083c.373.133,2.577,1.2,3.2,1.5l.269.133c.128.058.278.133.365.182A4.52,4.52,0,0,1,44.244,43.419Z" transform="translate(-18.103 -20.265)"/><path class="a" d="M13.227,14.833A16.652,16.652,0,0,0,10.617,35.5l-2.266,7.3a.625.625,0,0,0,.157.622.613.613,0,0,0,.617.157l7.458-2.233A17.324,17.324,0,0,0,37.57,38.79a16.747,16.747,0,0,0,.274-23.683q-.135-.139-.274-.274A17.4,17.4,0,0,0,13.227,14.833ZM36.683,37.9A16.089,16.089,0,0,1,16.96,40.141a.605.605,0,0,0-.323-.091.654.654,0,0,0-.29.07L9.883,42.059l1.964-6.335a.625.625,0,0,0,0-.63,15.422,15.422,0,0,1,2.25-19.37,16.159,16.159,0,0,1,22.586,0,15.508,15.508,0,0,1,.252,21.931c-.083.085-.167.169-.252.252Z" transform="translate(-8.16 -9.869)"/></svg>