<svg xmlns="http://www.w3.org/2000/svg" width="53" height="52" viewBox="0 0 53 52"><defs><style>.a,.d{fill:none;}.a{stroke:#fff;}.b{fill:#fff;}.c{stroke:none;}</style></defs><g transform="translate(-446 -8980)"><g class="a" transform="translate(446 8980)"><ellipse class="c" cx="26.5" cy="26" rx="26.5" ry="26"/><ellipse class="d" cx="26.5" cy="26" rx="26" ry="25.5"/></g><path class="b" d="M782.43,439.427a4.736,4.736,0,0,0-4.736-4.736H765.585a4.735,4.735,0,0,0-4.736,4.736v5.635a4.735,4.735,0,0,0,4.736,4.736h12.109a4.736,4.736,0,0,0,4.736-4.736Zm-7.121,3.24-5.431,2.687c-.212.115-.936-.039-.936-.281v-5.515c0-.246.729-.4.942-.278l5.2,2.828C775.3,442.232,775.529,442.547,775.309,442.666Z" transform="translate(-298.85 8563.309)"/></g></svg>