<svg xmlns="http://www.w3.org/2000/svg" width="25" height="17.773" viewBox="0 0 25 17.773"><defs><style>.a{fill:#1a1a1a;}</style></defs><g transform="translate(0 -74)"><g transform="translate(0 74)"><path class="a" d="M2.441,74H22.559A2.444,2.444,0,0,1,25,76.441V89.332a2.444,2.444,0,0,1-2.441,2.441H10.81a.488.488,0,1,1,0-.977H22.559a1.467,1.467,0,0,0,1.465-1.465V83.375H13.411a1.483,1.483,0,0,1-.664.967,1.5,1.5,0,0,1-.36.166l.86,1.478a.488.488,0,0,1-.549.717l-1.169-.314-.313,1.169a.488.488,0,0,1-.895.118L8.1,83.821,5.306,88.78a.488.488,0,0,1-.425.249.483.483,0,0,1-.061,0,.488.488,0,0,1-.411-.358L4.1,87.5l-1.169.314a.488.488,0,0,1-.551-.713l1.436-2.53c-.045,0-.091.007-.136.007a1.494,1.494,0,0,1-1.461-1.2H.977v5.957A1.466,1.466,0,0,0,2.441,90.8H7.324L7.2,83.674a.488.488,0,1,1,.977,0L8.3,90.8h2.537a.488.488,0,0,1,0,.977h-8.4A2.444,2.444,0,0,1,0,89.332V76.441A2.444,2.444,0,0,1,2.441,74Zm9.783,9.517a.505.505,0,0,0,.239-.435V79.662h0a.514.514,0,0,0-.734-.465l-2.4,1.13a1.484,1.484,0,0,1,.091.514v1.044a1.482,1.482,0,0,1-.1.529l2.4,1.133A.506.506,0,0,0,12.224,83.517Zm-1.647,2.65.134-.5a.488.488,0,0,1,.6-.345l.5.133-.632-1.087L8.925,83.3Zm.735-7.854a1.491,1.491,0,0,1,2.127,1.348V82.4H24.023V76.441a1.467,1.467,0,0,0-1.465-1.465H8.3V79.16a.485.485,0,0,1-.055.224,1.482,1.482,0,0,1,.438.17ZM7.683,82.4h.251a.515.515,0,0,0,.514-.514V80.841a.515.515,0,0,0-.514-.514H7.683a.515.515,0,0,0-.515.514v1.045A.515.515,0,0,0,7.683,82.4ZM3.8,86.565l.514-.138a.488.488,0,0,1,.6.345l.129.484L7.26,83.315a1.481,1.481,0,0,1-.306-.13l-1.686.8Zm-.4-3.048a.505.505,0,0,0,.495.031l2.4-1.13a1.483,1.483,0,0,1-.1-.532V80.841a1.484,1.484,0,0,1,.093-.517L3.9,79.2a.514.514,0,0,0-.734.465v3.421h0A.505.505,0,0,0,3.4,83.518ZM.977,82.4H2.185V79.662a1.491,1.491,0,0,1,2.127-1.348l2.624,1.238a1.481,1.481,0,0,1,.442-.17.486.486,0,0,1-.054-.222V74.977H2.441A1.467,1.467,0,0,0,.977,76.441V82.4Z" transform="translate(0 -74)"/></g><g transform="translate(17.109 76.132)"><path class="a" d="M60.218,128H54.395a.395.395,0,1,0,0,.79h5.824a.395.395,0,1,0,0-.79Z" transform="translate(-54 -128)"/></g><g transform="translate(15.797 79.332)"><path class="a" d="M56.843,182H54.395a.395.395,0,1,0,0,.79h2.448a.395.395,0,1,0,0-.79Z" transform="translate(-54 -182)"/></g><g transform="translate(7.612 79.332)"><path class="a" d="M155.364,182.116a.395.395,0,1,0,.116.279A.4.4,0,0,0,155.364,182.116Z" transform="translate(-154.69 -182)"/></g></g></svg>