<svg xmlns="http://www.w3.org/2000/svg" width="24.974" height="19.794" viewBox="0 0 24.974 19.794"><defs><style>.a,.b,.c,.e,.g{fill:none;}.a,.b,.c,.e{stroke:#1a1a1a;}.b,.c,.e{stroke-linecap:round;}.b{stroke-dasharray:25;}.d{fill:#1a1a1a;font-size:8px;font-family:Bariol-Bold, Bariol;font-weight:700;}.e{stroke-width:0.5px;stroke-dasharray:1;}.f{stroke:none;}</style></defs><g transform="translate(-13.55 -212)"><g transform="translate(22.95 217.275) rotate(-45)"><g class="a" transform="translate(0 0)"><circle class="f" cx="1.009" cy="1.009" r="1.009"/><circle class="g" cx="1.009" cy="1.009" r="1.509"/></g></g><g class="b" transform="matrix(-0.996, 0.087, -0.087, -0.996, 25.912, 224.263)"><circle class="f" cx="5.705" cy="5.705" r="5.705"/><circle class="g" cx="5.705" cy="5.705" r="5.205"/></g><path class="c" d="M-13695.594-10236.57h7.923l9.684,9.8a3.152,3.152,0,0,1,.65,1.493,3.971,3.971,0,0,1-.344,1.722l-5.286,5.287a4.268,4.268,0,0,1-1.756.493,3.784,3.784,0,0,1-1.686-.493l-9.742-9.743v-5.266" transform="translate(13715.349 10449.07)"/><text class="d" transform="translate(30.42 228.779) rotate(-43)"><tspan x="0" y="0">%</tspan></text><path class="e" d="M0,0H8.547" transform="translate(24.905 224.25) rotate(-45)"/></g></svg>