<svg xmlns="http://www.w3.org/2000/svg" width="21.99" height="18.54" viewBox="0 0 21.99 18.54"><defs><style>.a,.b,.c{fill:none;}.a,.b{stroke:#2b2a29;}.a{stroke-linecap:round;stroke-linejoin:round;}.d,.e{stroke:none;}.e{fill:#2b2a29;}</style></defs><g transform="translate(13874.282 9631.39)"><g transform="translate(-13873.778 -9620.832)"><path class="a" d="M104.847,497.185a8.748,8.748,0,0,1,3.319.346l.116.047.062.025h0c.39.156.8.307,1.229.456a7.492,7.492,0,0,0,3.305.5c1.389-.122,3.669-1.565,5.4-2.8,3.336-2.371,5.181-3.853,4.115-4.537-1.005-.646-3.559,1.356-5.775,2.822" transform="translate(-101.717 -491.098)"/><path class="a" d="M107.937,495.621a15.666,15.666,0,0,1,4.34.625c1.556.338,2.551.554,2.7-.3.162-.9-1.783-2.022-3.751-2.562-1.419-.389-2.5-1.356-3.783-1.375a6.147,6.147,0,0,0-2.684.674c-.561.26-1.061.464-1.526.628" transform="translate(-100.628 -491.712)"/><path class="a" d="M98.223,499.746l-2.147.249a.207.207,0,0,1-.23-.182l-.684-5.9a.208.208,0,0,1,.182-.23l2.147-.249a.207.207,0,0,1,.229.182l.684,5.9A.207.207,0,0,1,98.223,499.746Z" transform="translate(-95.162 -492.857)"/></g><g transform="translate(-13868.722 -9631.17)"><path class="b" d="M-13862.235-9716.244v-9.8a.793.793,0,0,1,.208-.57,1.511,1.511,0,0,1,.7-.26h12.539a1.337,1.337,0,0,1,.626.26,1.112,1.112,0,0,1,.286.57l.008,9.49" transform="translate(13862.235 9727.152)"/><path class="b" d="M-13857.051-9718.336h-5.233" transform="translate(13871.416 9721.195)"/><path class="b" d="M-13857.051-9718.336h-5.233" transform="translate(13862.353 9721.195)"/><g class="c" transform="translate(5.207 0)"><path class="d" d="M0,0H3.927V7.576L1.956,5.549,0,7.576Z"/><path class="e" d="M 1.000004291534424 0.9999957084655762 L 1.000004291534424 5.09914493560791 L 1.952744364738464 4.111475944519043 L 2.927264213562012 5.113548278808594 L 2.927264213562012 0.9999957084655762 L 1.000004291534424 0.9999957084655762 M 4.291534423828125e-06 -4.291534423828125e-06 L 3.927264451980591 -4.291534423828125e-06 L 3.927264451980591 7.576176166534424 L 1.955664396286011 5.548826217651367 L 4.291534423828125e-06 7.576176166534424 L 4.291534423828125e-06 -4.291534423828125e-06 Z"/></g></g></g></svg>