<svg xmlns="http://www.w3.org/2000/svg" width="25.669" height="25.694" viewBox="0 0 25.669 25.694"><defs><style>.a,.b,.c,.f{fill:none;}.b,.c{stroke:#2b2a29;}.c{stroke-linecap:round;}.d,.e{stroke:none;}.e{fill:#2b2a29;}</style></defs><g transform="translate(-2932.452 -16506.432) rotate(-135)"><g class="a" transform="translate(-13771 -9613)"><path class="d" d="M5.607,5.553a2,2,0,0,1,3.786,0l5.692,15.481H-.156Z"/><path class="e" d="M 7.499995231628418 5.198207855224609 C 7.332125663757324 5.198207855224609 6.767735481262207 5.247047424316406 6.553485870361328 5.875528335571289 L 6.544145584106445 5.901737213134766 L 1.283062934875488 20.03417778015137 L 13.65185642242432 20.03417778015137 L 8.446516036987305 5.875537872314453 C 8.232255935668945 5.247047424316406 7.66786527633667 5.198207855224609 7.499995231628418 5.198207855224609 M 7.499996662139893 4.198207855224609 C 8.292570114135742 4.198207855224609 9.085145950317383 4.649757385253906 9.393025398254395 5.552858352661133 L 15.08496570587158 21.03417778015137 L -0.156254768371582 21.03417778015137 L 5.606975555419922 5.552858352661133 C 5.914850234985352 4.649757385253906 6.707423210144043 4.198207855224609 7.499996662139893 4.198207855224609 Z"/></g><g class="b" transform="translate(-13772 -9593)"><rect class="d" width="17" height="3" rx="1.5"/><rect class="f" x="0.5" y="0.5" width="16" height="2" rx="1"/></g><g class="a" transform="translate(-13769.588 -9604.434) rotate(19)"><path class="d" d="M2,0,3.844-.046l-.237,7.96L2,8A2,2,0,0,1,0,6V2A2,2,0,0,1,2,0Z"/><path class="e" d="M 2.812910556793213 0.9800577163696289 L 1.999998807907104 1.000000953674316 C 1.448598861694336 1.000000953674316 0.9999988079071045 1.448600769042969 0.9999988079071045 2.000000953674316 L 0.9999988079071045 6.000000953674316 C 0.9999988079071045 6.543996810913086 1.436640024185181 6.987934589385986 1.977850675582886 6.999758720397949 L 2.634869575500488 6.964619636535645 L 2.812910556793213 0.9800577163696289 M 3.843878746032715 -0.04593896865844727 L 3.607068777084351 7.914050579071045 L 1.999998807907104 8.000000953674316 C 0.8954288959503174 8.000000953674316 -1.192092895507812e-06 7.104570865631104 -1.192092895507812e-06 6.000000953674316 L -1.192092895507812e-06 2.000000953674316 C -1.192092895507812e-06 0.8954305648803711 0.8954288959503174 9.5367431640625e-07 1.999998807907104 9.5367431640625e-07 L 3.843878746032715 -0.04593896865844727 Z"/></g><line class="b" x2="5" transform="translate(-13765.938 -9604.477)"/><line class="c" y2="2.977" transform="translate(-13763.5 -9588.477)"/><line class="c" x1="1.965" y2="1.977" transform="translate(-13768.5 -9588.477)"/><line class="c" x2="1.965" y2="1.977" transform="translate(-13760.5 -9588.477)"/></g></svg>