<svg xmlns="http://www.w3.org/2000/svg" width="24.912" height="18.201" viewBox="0 0 24.912 18.201"><path d="M24.887,11.934a2.227,2.227,0,0,0-2.2-1.909h-.178V6.9A1.78,1.78,0,0,0,20.73,5.119H2.118A2.121,2.121,0,0,0,0,7.237c0,.015,0,.03,0,.046S0,7.3,0,7.306V21.159A2.163,2.163,0,0,0,2.161,23.32H20.347a2.163,2.163,0,0,0,2.161-2.161v-1.2h.1a2.3,2.3,0,0,0,2.3-2.3c0-6.087.011-5.613-.023-5.721Zm-2.2-.905a1.221,1.221,0,0,1,1.22,1.22,1.369,1.369,0,0,1-.18.734,1.317,1.317,0,0,1-1.218.6V11.029ZM19.167,5.123Zm-17.049,1H20.73A.775.775,0,0,1,21.5,6.9V8.351H2.118a1.114,1.114,0,0,1,0-2.228ZM21.5,21.159a1.158,1.158,0,0,1-1.157,1.157H2.161A1.158,1.158,0,0,1,1,21.159v-.981H8.446a.5.5,0,0,0,0-1H1V9.041a2.127,2.127,0,0,0,.686.271c.523.108.284.008,19.814.044V13.58H19.666a3.188,3.188,0,0,0,0,6.377H21.5Zm2.4-3.5a1.3,1.3,0,0,1-1.3,1.3H19.666a2.184,2.184,0,0,1,0-4.368h3a2.24,2.24,0,0,0,1.239-.374Zm0,0" transform="translate(0 -5.119)"/><path d="M361.819,346.316a1.769,1.769,0,1,0,1.769,1.769A1.771,1.771,0,0,0,361.819,346.316Zm0,2.533a.765.765,0,1,1,.765-.765A.766.766,0,0,1,361.819,348.85Zm0,0" transform="translate(-341.976 -336.432)"/></svg>