<svg xmlns="http://www.w3.org/2000/svg" width="40.121" height="40.12" viewBox="0 0 40.121 40.12"><path d="M55.452,16H48.765a.669.669,0,0,0-.669.669v2.806a22.583,22.583,0,0,0-24.072,0V16.669A.669.669,0,0,0,23.355,16H16.669a.669.669,0,0,0-.669.669V37.435a3.36,3.36,0,0,0,.353,1.5l4.578,9.155a2.761,2.761,0,0,0,3.72,1.229A17.7,17.7,0,0,0,29.3,53.935,12.276,12.276,0,0,0,36.06,56.12a12.278,12.278,0,0,0,6.758-2.185,17.7,17.7,0,0,0,4.653-4.621,2.741,2.741,0,0,0,1.244.3,2.768,2.768,0,0,0,2.475-1.528l4.578-9.155a3.36,3.36,0,0,0,.353-1.495V16.669A.669.669,0,0,0,55.452,16Zm-9.8,13.393a15.913,15.913,0,0,0-6.921-2.522,15.6,15.6,0,0,0,2.545-2.662,13.763,13.763,0,0,0,2.72-5.359A19.331,19.331,0,0,1,48.1,21.1v3.989l-.115.115a8.683,8.683,0,0,0-2.334,4.194ZM36.06,17.337a21.5,21.5,0,0,1,6.659,1.05A12.429,12.429,0,0,1,40.21,23.4c-1.51,1.975-3.177,3.3-4.149,3.3a16.986,16.986,0,0,0-9.587,2.695A8.682,8.682,0,0,0,24.139,25.2l-.115-.115V21.1A20.672,20.672,0,0,1,36.06,17.337ZM23.1,48.242a1.418,1.418,0,0,1-.969-.754l-4.578-9.155a2.016,2.016,0,0,1-.212-.9v-20.1h5.349v8.024a.669.669,0,0,0,.2.473l.311.311a7.355,7.355,0,0,1,2.168,5.235v6.687a1.337,1.337,0,0,1-2.675,0V33.386a.669.669,0,1,0-1.337,0V39.4a.668.668,0,0,0,.071.3l3.255,6.51a1.425,1.425,0,0,1-1.58,2.028ZM36.06,54.783c-3.774,0-7.7-2.418-10.4-6.354a2.779,2.779,0,0,0,.206-2.814L23.4,40.667a2.676,2.676,0,0,0,3.3-2.6V31.38c0-.163,0-.326-.014-.488a15.279,15.279,0,0,1,9.375-2.856,15.279,15.279,0,0,1,9.375,2.856c-.009.162-.014.324-.014.488v6.687a2.676,2.676,0,0,0,3.3,2.6l-2.474,4.948a2.779,2.779,0,0,0,.206,2.814C43.762,52.365,39.834,54.783,36.06,54.783ZM54.783,37.435a2.016,2.016,0,0,1-.212.9l-4.578,9.155a1.425,1.425,0,0,1-2.548-1.274L50.7,39.7a.668.668,0,0,0,.071-.3V33.386a.669.669,0,1,0-1.337,0v4.681a1.337,1.337,0,1,1-2.675,0V31.38a7.354,7.354,0,0,1,2.168-5.235l.311-.311a.669.669,0,0,0,.2-.473V17.337h5.349Z" transform="translate(-16 -16)"/><path d="M164.012,288.668a.669.669,0,0,0-1.337,0,.669.669,0,1,1-1.337,0,.669.669,0,0,0-1.337,0,2.006,2.006,0,1,0,4.012,0Z" transform="translate(-147.964 -265.265)"/><path d="M307.343,288a.669.669,0,0,0-.669.669.669.669,0,1,1-1.337,0,.669.669,0,0,0-1.337,0,2.006,2.006,0,1,0,4.012,0A.669.669,0,0,0,307.343,288Z" transform="translate(-279.928 -265.265)"/><path d="M202.289,368.038a.669.669,0,0,0-.881.345,4.776,4.776,0,0,1-8.138,0,.669.669,0,1,0-1.224.539,6.093,6.093,0,0,0,10.587,0A.669.669,0,0,0,202.289,368.038Z" transform="translate(-177.28 -338.56)"/><path d="M232.669,308.012h2.675a.669.669,0,1,0,0-1.337h-2.006v-2.006a.669.669,0,0,0-1.337,0v2.675A.669.669,0,0,0,232.669,308.012Z" transform="translate(-213.946 -279.928)"/></svg>