<svg xmlns="http://www.w3.org/2000/svg" width="28.101" height="43.352" viewBox="0 0 28.101 43.352"><path d="M46.542,30.274a1.468,1.468,0,0,0-1.109-.494H42.607l.5-1.328a1.4,1.4,0,0,0,.787-.781L45.1,24.618a1.786,1.786,0,0,0-.369-1.877l-3.545-3.752a.064.064,0,0,1-.02-.059L46.084,4.454a1.443,1.443,0,0,0-.842-1.831l-1.889-.709a1.442,1.442,0,0,0-1.838.826L35.7,16.874a.065.065,0,0,1-.055.035L30.5,17.4a1.788,1.788,0,0,0-1.513,1.171l-1.1,3.094a1.4,1.4,0,0,0,.079,1.107l-2.628,7H20.211a1.468,1.468,0,0,0-1.109.494,1.323,1.323,0,0,0-.319,1.046L19.8,38.827a7.73,7.73,0,0,0,7.875,6.349H37.968a7.731,7.731,0,0,0,7.875-6.349l1.018-7.507A1.321,1.321,0,0,0,46.542,30.274ZM29.9,20.035l.359-1.009a.428.428,0,0,1,.37-.279l5.138-.494a1.412,1.412,0,0,0,1.173-.862L42.763,3.253a.118.118,0,0,1,.1-.079.056.056,0,0,1,.018,0l1.889.709a.106.106,0,0,1,.038.134L39.887,18.5a1.411,1.411,0,0,0,.318,1.417l3.545,3.752a.428.428,0,0,1,.095.453l-.394,1-.813,2.057a.077.077,0,0,1-.1.031l-.357-.134-12.606-4.73-.357-.134a.076.076,0,0,1-.054-.088Zm-.8,3.57,12.606,4.73-.542,1.444h-.944l.028-.076a.675.675,0,0,0-1.264-.475l-.206.55H37.459l.369-.984a.675.675,0,1,0-1.264-.475l-.547,1.459H34.7l.71-1.893a.675.675,0,0,0-1.264-.475l-.888,2.368H31.933l1.051-2.8A.675.675,0,0,0,31.72,26.5L30.491,29.78H29.17l1.392-3.711a.675.675,0,0,0-1.264-.475l-1.57,4.185h-.943Zm15.4,15.04a6.38,6.38,0,0,1-6.538,5.18H27.676a6.38,6.38,0,0,1-6.538-5.18l-1.015-7.489a.133.133,0,0,1,.087-.027H45.433c.055,0,.085.024.09.012Z" transform="translate(-18.772 -1.823)"/></svg>