<svg xmlns="http://www.w3.org/2000/svg" width="27.308" height="31.294" viewBox="0 0 27.308 31.294"><defs><style>.a{fill:none;stroke:#000;stroke-linecap:round;stroke-linejoin:round;stroke-width:0.6px;}</style></defs><g transform="translate(0.3 0.383)"><path class="a" d="M16.464,17.012a5.256,5.256,0,0,1-2.259.676,5.056,5.056,0,0,1-2.261-.674l.394-.525a1.235,1.235,0,0,1,.617-.448A1.073,1.073,0,0,1,13.207,16c.494-.038.607.156,1.009.161s.512-.192,1.009-.143a1.2,1.2,0,0,1,.31.072,1.255,1.255,0,0,1,.528.407Z" transform="translate(-0.674 3.382)"/><path class="a" d="M12.233,17.048l.374.289a1.641,1.641,0,0,0,.6.172,1.158,1.158,0,0,0,.133.005H14.2a1.355,1.355,0,0,0,.248-.02,1.589,1.589,0,0,0,.574-.2l.228-.184" transform="translate(-0.223 5.033)"/><path class="a" d="M15.022,14.866c-.033.146-.143.179-.576.479a1.577,1.577,0,0,1-1.616,0c-.433-.3-.543-.333-.576-.479" transform="translate(-0.192 1.627)"/><g transform="translate(7.449 11.986)"><path class="a" d="M10.452,13.106a2.637,2.637,0,0,0,1.127.576,2.723,2.723,0,0,0,.886.046,6.466,6.466,0,0,0,1.165-.279c.274-.077.507-.143.674-.192" transform="translate(-10.452 -13.106)"/><path class="a" d="M10.8,13.305" transform="translate(-9.907 -12.795)"/></g><g transform="translate(15.529 11.986)"><path class="a" d="M17.459,13.106a2.625,2.625,0,0,1-1.124.576,2.74,2.74,0,0,1-.889.046,6.466,6.466,0,0,1-1.165-.279c-.274-.077-.507-.143-.674-.192" transform="translate(-13.607 -13.106)"/><path class="a" d="M14.762,13.305" transform="translate(-11.804 -12.795)"/></g><path class="a" d="M9.913,25.438a26.04,26.04,0,0,1-.9-7,17.829,17.829,0,0,1,1.245-2.8,14.9,14.9,0,0,1,4.134-5,13.487,13.487,0,0,1,2.784-1.613" transform="translate(-5.248 -7.485)"/><path class="a" d="M22.321,26.315a25.794,25.794,0,0,0,.766-6.966c-.131-.31-.325-.756-.579-1.288A17.919,17.919,0,0,0,12.343,8.426" transform="translate(-0.051 -8.426)"/><path class="a" d="M14.626,12.734a2.867,2.867,0,0,0-1.713-.914,9.422,9.422,0,0,0-2.687,0" transform="translate(-3.356 -3.286)"/><path class="a" d="M13.373,12.729a2.867,2.867,0,0,1,1.713-.914,9.422,9.422,0,0,1,2.687,0" transform="translate(1.557 -3.294)"/><g transform="translate(0 11.635)"><path class="a" d="M16.823,26.02a3.121,3.121,0,0,0,.648-2.29c-.146-.927-.817-1.555-2.136-2.786,0,0-1.478-1.378-2.013-1.987l-.233-.269c-.161-.182-.346-.389-.548-.62A9.8,9.8,0,0,0,10.718,16.3a1.444,1.444,0,0,0-1.9.092l2.131,3.183.84,1.877" transform="translate(-5.551 -8.255)"/><path class="a" d="M14.821,31.831l-.814-1.286a82.325,82.325,0,0,1-5.6-7.176,2.8,2.8,0,0,1-.661-1.557,27.668,27.668,0,0,1-.184-3.519l.955-5.235c.01-.123.141-.1.289-.036a1.434,1.434,0,0,1,.7.732,4.815,4.815,0,0,1-.131,1.934l0,2.561.228.694.464,1.065" transform="translate(-7.544 -12.969)"/><path class="a" d="M12.019,18.717" transform="translate(-0.557 -3.997)"/></g><g transform="translate(14.758 11.635)"><path class="a" d="M13.982,26.02a3.133,3.133,0,0,1-.648-2.29c.146-.927.817-1.555,2.136-2.786,0,0,1.48-1.378,2.013-1.987l.236-.269c.159-.182.343-.389.546-.62A9.763,9.763,0,0,1,20.09,16.3a1.44,1.44,0,0,1,1.9.092l-2.131,3.183-.837,1.877" transform="translate(-13.306 -8.255)"/><path class="a" d="M15.13,31.831l.814-1.286a81.833,81.833,0,0,0,5.6-7.176,2.782,2.782,0,0,0,.661-1.557,27.2,27.2,0,0,0,.184-3.519l-.955-5.235c-.01-.123-.138-.1-.289-.036a1.429,1.429,0,0,0-.7.732c-.2.461.059,1.291.128,1.934l0,2.561-.225.694-.466,1.065" transform="translate(-10.458 -12.969)"/><path class="a" d="M13.5,18.717" transform="translate(-13.009 -3.997)"/></g><path class="a" d="M12.208,18.866a2.945,2.945,0,0,0,2.884,0" transform="translate(-0.262 7.871)"/><path class="a" d="M10.226,15.1s-1.852-2.538-1.987-3.934" transform="translate(-6.458 -4.147)"/><path class="a" d="M16.551,15.1s1.849-2.538,1.987-3.934" transform="translate(6.518 -4.147)"/></g></svg>