<svg xmlns="http://www.w3.org/2000/svg" width="33.844" height="46.44" viewBox="0 0 33.844 46.44"><path d="M42.524,21.395a16.922,16.922,0,1,0-19.665,16.7V49.3H17.525a.809.809,0,1,0,0,1.618h16.16a.813.813,0,1,0,0-1.625H28.352v-11.2A16.945,16.945,0,0,0,42.524,21.395Zm-32.225,0A15.3,15.3,0,1,1,25.6,36.7,15.32,15.32,0,0,1,10.3,21.395ZM26.726,38.316V49.288H24.477V38.316Z" transform="translate(-8.68 -4.473)"/><path d="M40.258,22.772A13.279,13.279,0,1,0,26.979,36.051,13.295,13.295,0,0,0,40.258,22.772Zm-24.94,0A11.661,11.661,0,1,1,26.979,34.433,11.675,11.675,0,0,1,15.318,22.772Z" transform="translate(-10.057 -5.85)"/><path d="M26.012,17.859a.811.811,0,1,0-1.146-1.147l-4.876,4.876a.811.811,0,1,0,1.146,1.146Z" transform="translate(-11.717 -7.765)"/><path d="M29.865,18.592a.806.806,0,0,0-1.146,0l-7.039,7.031a.811.811,0,1,0,1.146,1.146l7.039-7.031A.806.806,0,0,0,29.865,18.592Z" transform="translate(-12.181 -8.281)"/></svg>