<svg xmlns="http://www.w3.org/2000/svg" width="41.573" height="47.878" viewBox="0 0 41.573 47.878"><defs><style>.a{fill:none;stroke:#000;stroke-linecap:round;stroke-linejoin:round;stroke-width:0.7px;}</style></defs><g transform="translate(0.563 0.475)"><g transform="translate(24.96 23.183)"><g transform="translate(0 13.561)"><path class="a" d="M293.259,1517.342a7.317,7.317,0,0,1,1.219,2.975,5.342,5.342,0,0,1-.773,3.982,7.229,7.229,0,0,1-2.3,2.335,4.547,4.547,0,0,0,.356-1.774c-.011-1.328-.642-1.9-.519-2.967a3.151,3.151,0,0,1,1-1.867s.978.492.578,2.5" transform="translate(-279.619 -1517.342)"/><path class="a" d="M256.209,1524.469a6.018,6.018,0,0,1,3.179-.762,3.035,3.035,0,0,1-1,1.752c-1.1.887-2.372.284-4.211.866a6.535,6.535,0,0,0-2.558,1.566,7.134,7.134,0,0,1,2.137-3.775c1.971-1.717,4.732-1.842,6.872-3.263a10.724,10.724,0,0,0,3.113-3.172" transform="translate(-251.615 -1517.581)"/></g><g transform="translate(2.757 0)"><path class="a" d="M282.476,1493.028a.636.636,0,1,0,.857-.939.687.687,0,0,0-.123-.088.637.637,0,0,0-.728.082.65.65,0,0,0-.048.047.635.635,0,0,0,.042.9Z" transform="translate(-276.046 -1485.808)"/><path class="a" d="M273.949,1477.243a4.715,4.715,0,0,0-1.776-6.192,4.344,4.344,0,0,0-1.684.92,3.624,3.624,0,0,0-1.316,2.418,2.994,2.994,0,0,0,.074.831" transform="translate(-266.784 -1471.051)"/><path class="a" d="M267.464,1488.88a4.71,4.71,0,0,0-6.427-.427,4.331,4.331,0,0,0,.3,1.894,3.615,3.615,0,0,0,1.828,2.057,2.922,2.922,0,0,0,.808.212" transform="translate(-261.028 -1482.606)"/><path class="a" d="M275.93,1494.948a4.712,4.712,0,0,0-2.434,5.964,4.36,4.36,0,0,0,1.892.317,3.618,3.618,0,0,0,2.528-1.088,2.955,2.955,0,0,0,.457-.7" transform="translate(-269.656 -1487.948)"/><path class="a" d="M284.661,1493.83a4.715,4.715,0,0,0,4.979,4.089,4.34,4.34,0,0,0,.862-1.713,3.613,3.613,0,0,0-.29-2.737,2.862,2.862,0,0,0-.533-.643" transform="translate(-277.738 -1486.448)"/><path class="a" d="M287.208,1476.348a2.944,2.944,0,0,1,.778-.3,3.627,3.627,0,0,1,2.688.6,4.337,4.337,0,0,1,1.349,1.364,4.716,4.716,0,0,1-5.463,3.414" transform="translate(-279.08 -1474.534)"/></g></g><g transform="translate(0 0)"><path class="a" d="M232.471,1500.152a9.312,9.312,0,0,1-7.864,0l.686-.912a2.142,2.142,0,0,1,1.074-.78,1.873,1.873,0,0,1,.433-.078c.862-.069,1.06.271,1.758.281s.893-.334,1.757-.249a1.913,1.913,0,0,1,.538.124,2.171,2.171,0,0,1,.918.706Z" transform="translate(-207.559 -1467.186)"/><path class="a" d="M227.861,1512.658l.981.759a2.822,2.822,0,0,0,1.055.3c.076.007.155.01.232.01h1.48a2.651,2.651,0,0,0,.433-.035,2.77,2.77,0,0,0,1-.357l.845-.677" transform="translate(-209.86 -1477.286)"/><path class="a" d="M234.115,1481.268c-.06.256-.252.313-1,.834a2.747,2.747,0,0,1-2.815,0c-.75-.521-.942-.578-1-.834" transform="translate(-210.874 -1455.092)"/><g transform="translate(8.047 17.925)"><path class="a" d="M193.881,1453.5a1.91,1.91,0,0,1,2.351.013,4.577,4.577,0,0,0,1.958,1,4.786,4.786,0,0,0,1.542.081,11.356,11.356,0,0,0,2.029-.487c.479-.135.881-.25,1.174-.333" transform="translate(-193.881 -1453.102)"/><path class="a" d="M202.293,1458.5a1.832,1.832,0,0,1,1.441-.974" transform="translate(-199.829 -1456.234)"/></g><g transform="translate(24.455 17.925)"><path class="a" d="M258.948,1453.5a1.91,1.91,0,0,0-2.352.013,4.576,4.576,0,0,1-1.958,1,4.786,4.786,0,0,1-1.542.081,11.35,11.35,0,0,1-2.029-.487c-.479-.135-.881-.25-1.174-.333" transform="translate(-249.893 -1453.102)"/><path class="a" d="M267.469,1457.531a1.832,1.832,0,0,1,1.442.974" transform="translate(-262.32 -1456.234)"/></g><path class="a" d="M180.1,1454.954a46.55,46.55,0,0,0,1.54,10.251c1.427,5.362,7.878,10.627,11.934,13.488a5.743,5.743,0,0,0,6.713,0c1.249-.88,2.724-1.989,4.209-3.257l1.9-1.707" transform="translate(-176.093 -1436.486)"/><path class="a" d="M294.457,1454.24q-.025.976-.1,1.946l-.175,2.53" transform="translate(-256.753 -1435.981)"/><path class="a" d="M170.423,1453.818c-.579,1.329-1.864,2.194-2.746,3.345a6.527,6.527,0,0,0-.073,7.623,13.415,13.415,0,0,1,1.414,1.9,3.322,3.322,0,0,1-.188,3.21" transform="translate(-166.411 -1435.683)"/><path class="a" d="M206.127,1435.169a4.984,4.984,0,0,0-2.983-1.591,16.333,16.333,0,0,0-4.673,0" transform="translate(-189.079 -1421.247)"/><path class="a" d="M246.331,1435.092a4.983,4.983,0,0,1,2.983-1.591,16.323,16.323,0,0,1,4.673,0" transform="translate(-222.919 -1421.193)"/><g transform="translate(4.08)"><path class="a" d="M194.631,1399.031a18.6,18.6,0,0,0-5.186,2.807c-6.326,5.149-7.646,9.635-9.089,13.619,0,.006-.006.006-.019-.006" transform="translate(-180.337 -1396.946)"/><path class="a" d="M235.135,1391.912c2.354,1.281,4.728,2.543,6.942,4.027,5.252,3.519,8.465,8.37,10.63,14.232" transform="translate(-219.082 -1391.912)"/></g></g></g></svg>